SplineFontDB: 3.0
FontName: Glacier-Regular
FullName: Glacier Regular
FamilyName: Glacier
Weight: Regular
Copyright: Quentin Juhel
Version: 1.000
ItalicAngle: 0
UnderlinePosition: -100
UnderlineWidth: 50
Ascent: 750
Descent: 250
InvalidEm: 0
sfntRevision: 0x00010000
LayerCount: 2
Layer: 0 0 "Arri+AOgA-re" 1
Layer: 1 0 "Avant" 0
XUID: [1021 394 -1746490237 4570373]
StyleMap: 0x0040
FSType: 4
OS2Version: 4
OS2_WeightWidthSlopeOnly: 0
OS2_UseTypoMetrics: 0
CreationTime: 1423821051
ModificationTime: 1605892018
PfmFamily: 81
TTFWeight: 400
TTFWidth: 5
LineGap: 9
VLineGap: 0
Panose: 0 0 0 0 0 0 0 0 0 0
OS2TypoAscent: 750
OS2TypoAOffset: 0
OS2TypoDescent: -250
OS2TypoDOffset: 0
OS2TypoLinegap: 9
OS2WinAscent: 759
OS2WinAOffset: 0
OS2WinDescent: 259
OS2WinDOffset: 0
HheadAscent: 750
HheadAOffset: 0
HheadDescent: -250
HheadDOffset: 0
OS2SubXSize: 700
OS2SubYSize: 650
OS2SubXOff: 0
OS2SubYOff: 140
OS2SupXSize: 700
OS2SupYSize: 650
OS2SupXOff: 0
OS2SupYOff: 477
OS2StrikeYSize: 50
OS2StrikeYPos: 250
OS2CapHeight: 700
OS2XHeight: 500
OS2Vendor: 'pyrs'
OS2CodePages: 00000001.00000000
OS2UnicodeRanges: 80000027.00000042.00000000.00000000
Lookup: 258 0 0 "'kern' Horizontal Kerning in Latin lookup 0" { "'kern' Horizontal Kerning in Latin lookup 0 subtable"  } ['kern' ('DFLT' <'dflt' > 'latn' <'dflt' > ) ]
MarkAttachClasses: 1
DEI: 91125

StartChar: b
Encoding: 98 98 4
Width: 426
GlyphClass: 2
Flags: MW
HStem: 680 20G<206 206>
VStem: 31 402
LayerCount: 2
Fore
SplineSet
34 633 m 1
 40 663 l 1
 40 663 206 700 206 700 c 1
 243 670 l 1
 243 670 179 472 131 303 c 1
 141 316 152 330 163 342 c 0
 202 386 340 504 340 504 c 1
 340 504 431 472 431 472 c 1
 458 259 135 -9 135 -9 c 1
 135 -9 98 11 31 43 c 1
 62 271 163 568 194 661 c 1
 133 651 34 633 34 633 c 1
76 63 m 1
 126 37 l 1
 178 64 411 338 393 444 c 1
 348 460 l 1
 320 436 223 351 193 316 c 0
 156 274 114 218 100 191 c 1
 90 153 76 81 76 63 c 1
EndSplineSet
EndChar

StartChar: c
Encoding: 99 99 5
Width: 316
GlyphClass: 2
Flags: MW
HStem: 2 498<181 238>
VStem: 31 40<142 185 142 187.5>
LayerCount: 2
Fore
SplineSet
238 500 m 2
 272 473 l 2
 270 473 122 392 94 329 c 1
 76 278 71 214 71 156 c 0
 71 128 72 101 75 79 c 1
 107 69 130 60 164 49 c 1
 266 203 l 1
 286 188 l 1
 273 165 181 2 181 2 c 1
 39 48 l 1
 34 80 31 118 31 156 c 0
 31 219 35 287 56 343 c 0
 85 421 236 500 238 500 c 2
EndSplineSet
EndChar

StartChar: a
Encoding: 97 97 6
Width: 419
GlyphClass: 2
Flags: MW
HStem: -1 21G<104 104> 462 32
VStem: 3 408
LayerCount: 2
Fore
SplineSet
291 -12 m 1
 255 -6 l 1
 255 -6 256 20 308 234 c 1
 218 110 104 -1 104 -1 c 1
 3 55 l 1
 22 198 109 407 123 423 c 1
 237 489 386 494 411 494 c 1
 352 276 308 66 291 -12 c 1
47 75 m 1
 66 64 77 59 99 47 c 1
 132 77 266 216 335 341 c 1
 344 377 354 417 365 462 c 1
 299 462 199 425 145 389 c 0
 137 384 67 205 47 75 c 1
EndSplineSet
EndChar

StartChar: e
Encoding: 101 101 7
Width: 336
GlyphClass: 2
Flags: MW
HStem: 1 21G<155 155>
VStem: 31 40<77 77 77 114> 265 44<395.5 428 395.5 429>
LayerCount: 2
Fore
SplineSet
298 195 m 1
 317 183 l 1
 317 183 260 87 155 1 c 1
 32 47 l 1
 32 47 31 57 31 74 c 0
 31 154 43 391 176 500 c 1
 306 445 l 1
 306 445 309 436 309 420 c 0
 309 371 284 256 77 166 c 1
 71 114 71 77 71 77 c 1
 97 67 121 57 149 47 c 1
 240 123 298 195 298 195 c 1
265 429 m 1
 187 461 l 1
 124 406 96 296 82 207 c 1
 180 246 265 317 265 429 c 1
EndSplineSet
EndChar

StartChar: f
Encoding: 102 102 8
Width: 367
GlyphClass: 2
Flags: MW
HStem: -170 39 249 40<32 39> 256 40<294 304> 662 37
VStem: 115 40<-129 -85 -167 -18> 332 37<573 585>
LayerCount: 2
Fore
SplineSet
351 444 m 1xbc
 316 434 l 1
 323 475 332 521 332 570 c 0
 332 600 328 631 319 662 c 1
 295 663 l 1
 295 663 293 662 292 661 c 0
 276 651 205 607 172 293 c 1
 238 294 304 296 304 296 c 1
 294 256 l 1
 294 256 232 254 168 253 c 1xbc
 160 162 155 51 155 -85 c 2
 155 -167 l 1
 50 -172 l 1
 50 -172 11 -58 11 -58 c 1
 33 -55 l 1
 33 -55 74 -130 74 -130 c 1
 93 -130 l 2
 98 -130 104 -130 115 -129 c 1
 115 -85 l 2
 115 49 120 160 129 252 c 1
 77 250 32 249 32 249 c 1
 39 289 l 1
 39 289 82 290 133 291 c 1xdc
 172 645 262 688 282 698 c 0
 283 699 284 699 285 700 c 2
 353 700 l 1
 364 670 369 635 369 600 c 0
 369 546 359 489 351 444 c 1xbc
EndSplineSet
EndChar

StartChar: g
Encoding: 103 103 9
Width: 451
GlyphClass: 2
Flags: MW
HStem: -218 39<69 125.5 69 178.5> 9 40<160 208.5 160 209> 353 29<429 452>
VStem: -43 44<-83 -25 -83.5 -21> 42 37<262.5 313.5 261.5 318>
LayerCount: 2
Fore
SplineSet
300 486 m 2
 360 498 l 1
 417 394 452 382 452 382 c 1
 452 353 l 1
 406 353 371 396 346 435 c 1
 338 409 329 378 321 347 c 0
 284 205 273 162 217 153 c 1
 191 138 134 105 100 85 c 1
 106 74 126 49 194 49 c 0
 223 49 262 54 313 68 c 1
 401 25 l 1
 401 25 399 23 397 19 c 0
 376 -19 268 -218 89 -218 c 0
 -17 -218 -43 -115 -43 -51 c 0
 -43 9 -15 71 39 101 c 2
 39 101 97 133 144 159 c 1
 91 178 42 228 42 297 c 0
 42 339 79 396 113 437 c 1
 171 462 245 475 300 486 c 2
305 452 m 1
 235 442 149 420 137 407 c 0
 109 375 79 336 79 291 c 0
 79 232 140 191 182 191 c 0
 256 191 241 220 305 452 c 1
62 63 m 1
 14 40 1 -3 1 -47 c 0
 1 -120 46 -179 92 -179 c 0
 159 -179 280 -119 340 9 c 1
 307 26 l 1
 259 13 224 9 194 9 c 0
 85 9 62 55 62 63 c 1
EndSplineSet
EndChar

StartChar: h
Encoding: 104 104 10
Width: 433
GlyphClass: 2
Flags: MW
HStem: 0 21G<46 46> 1 21G<238 238> 680 20G<215 215>
VStem: 339 56<457 457>
LayerCount: 2
Fore
SplineSet
43 633 m 1x70
 49 663 l 1
 49 663 215 700 215 700 c 1
 248 673 l 2
 251 671 252 670 252 670 c 1
 240 619 196 466 143 297 c 1
 196 376 267 464 337 502 c 1
 395 472 l 1
 395 467 l 2
 395 431 386 274 274 -15 c 1
 238 1 l 1x70
 349 264 359 446 358 446 c 2
 339 457 l 1
 249 399 136 215 90 130 c 1
 75 85 60 41 46 0 c 1
 8 12 l 1xb0
 92 256 180 566 204 662 c 1
 143 651 43 633 43 633 c 1x70
EndSplineSet
EndChar

StartChar: i
Encoding: 105 105 11
Width: 274
GlyphClass: 2
Flags: MW
HStem: 0 21G<119 119> 603 62<169 201 154 224>
VStem: 28 229<50 167>
LayerCount: 2
Fore
SplineSet
169 665 m 1
 224 665 l 1
 224 665 201 603 201 603 c 1
 154 603 l 1
 154 603 169 665 169 665 c 1
143 500 m 1
 181 500 l 1
 181 500 102 275 72 72 c 1
 117 48 l 1
 136 66 171 106 221 163 c 2
 235 179 l 1
 257 167 l 1
 186 80 119 0 119 0 c 1
 28 50 l 1
 60 267 143 500 143 500 c 1
EndSplineSet
EndChar

StartChar: j
Encoding: 106 106 12
Width: 223
GlyphClass: 2
Flags: MW
HStem: 603 62<183 215 168 238>
VStem: -65 303
LayerCount: 2
Fore
SplineSet
183 665 m 1
 238 665 l 1
 238 665 215 603 215 603 c 1
 168 603 l 1
 168 603 183 665 183 665 c 1
165 501 m 2
 207 501 l 2
 207 500 126 2 85 -132 c 1
 -34 -172 l 1
 -34 -172 -65 -64 -65 -64 c 1
 -40 -64 l 1
 -40 -64 -14 -128 -14 -128 c 1
 54 -104 l 1
 94 54 165 500 165 501 c 2
EndSplineSet
EndChar

StartChar: k
Encoding: 107 107 13
Width: 431
GlyphClass: 2
Flags: MW
HStem: 1 21G<14 14> 681 20G<225 225>
VStem: 14 413
LayerCount: 2
Fore
SplineSet
393 479 m 1
 427 449 l 2
 427 448 426 446 426 444 c 0
 418 414 388 304 199 235 c 1
 337 195 382 53 385 40 c 1
 367 -2 l 1
 367 -2 318 203 134 214 c 1
 131 214 l 2
 130 214 129 213 128 213 c 0
 105 142 79 65 52 -13 c 1
 14 1 l 1
 131 336 194 622 202 660 c 1
 140 649 53 634 53 634 c 1
 59 664 l 1
 59 664 225 701 225 701 c 1
 262 671 l 1
 262 671 216 494 140 251 c 1
 332 309 367 403 385 454 c 2
 393 479 l 1
EndSplineSet
EndChar

StartChar: l
Encoding: 108 108 14
Width: 265
GlyphClass: 2
Flags: MW
HStem: 680 20G<186 186>
VStem: 14 249
LayerCount: 2
Fore
SplineSet
14 633 m 1
 20 663 l 1
 20 663 186 700 186 700 c 1
 223 670 l 1
 194 580 107 280 71 44 c 1
 75 42 78 40 86 37 c 1
 245 216 l 1
 263 200 l 1
 97 -11 l 1
 27 20 l 1
 63 272 149 574 175 661 c 1
 113 650 14 633 14 633 c 1
EndSplineSet
EndChar

StartChar: m
Encoding: 109 109 15
Width: 677
GlyphClass: 2
Flags: MW
HStem: -1 21G<68 68> 464 33
VStem: 380 40<429 440 416.5 452 416.5 452>
LayerCount: 2
Fore
SplineSet
28 403 m 1
 29 433 l 1
 29 433 156 496 156 497 c 2
 239 497 l 2
 238 496 192 391 143 249 c 1
 199 344 270 450 337 504 c 1
 416 482 l 1
 418 470 420 451 420 429 c 0
 420 404 414 354 400 288 c 1
 448 367 512 454 589 504 c 1
 659 480 l 1
 659 480 638 209 551 -6 c 1
 504 -17 l 1
 577 164 619 451 619 451 c 1
 591 460 l 1
 443 360 348 97 348 97 c 1
 347 97 l 1
 335 62 322 25 306 -13 c 1
 263 -17 l 1
 343 177 380 375 380 429 c 2
 380 452 l 1
 368 455 361 456 347 460 c 1
 226 358 81 48 81 48 c 1
 76 32 72 15 68 -1 c 1
 30 9 l 1
 88 239 163 429 177 464 c 1
 122 440 49 411 28 403 c 1
EndSplineSet
EndChar

StartChar: n
Encoding: 110 110 16
Width: 438
GlyphClass: 2
Flags: MW
HStem: -1 21G<68 68> 463 34
VStem: 380 40<429 440 401 452 401 452>
LayerCount: 2
Fore
SplineSet
28 403 m 1
 29 433 l 1
 29 433 156 496 156 497 c 2
 239 497 l 2
 238 496 192 391 143 249 c 1
 199 344 270 450 337 504 c 1
 416 482 l 1
 418 470 420 451 420 429 c 0
 420 373 390 189 306 -13 c 1
 263 -17 l 1
 343 177 380 375 380 429 c 2
 380 452 l 1
 368 455 361 456 347 460 c 1
 226 358 81 48 81 48 c 1
 76 32 72 15 68 -1 c 1
 30 9 l 1
 87 237 161 425 177 463 c 1
 122 438 48 409 28 403 c 1
EndSplineSet
EndChar

StartChar: o
Encoding: 111 111 17
Width: 426
GlyphClass: 2
Flags: MW
HStem: -1 21G<182 182>
VStem: 31 40<100 141.5 97.5 259> 367 40<274 385.5>
LayerCount: 2
Fore
SplineSet
228 498 m 2
 397 467 l 1
 404 429 407 400 407 376 c 0
 407 140 182 -1 182 -1 c 1
 34 35 l 1
 33 53 31 93 31 107 c 0
 31 411 227 498 228 498 c 2
363 430 m 1
 226 453 l 1
 88 346 71 176 71 107 c 0
 71 88 72 66 72 64 c 2
 175 41 l 1
 189 49 367 172 367 376 c 0
 367 395 367 407 363 430 c 1
EndSplineSet
EndChar

StartChar: p
Encoding: 112 112 18
Width: 452
GlyphClass: 2
Flags: MW
HStem: -181 44 38 40<208.5 241.5 208.5 249.5> 459 40<220 232 210 262.5>
VStem: 393 40<368 374 364 376 364 409>
LayerCount: 2
Fore
SplineSet
190 564 m 1
 237 564 l 1
 237 564 231 539 220 499 c 1
 305 499 433 487 433 374 c 2
 433 364 l 1
 407 185 293 57 281 49 c 1
 281 49 269 38 230 38 c 0
 183 38 152 44 109 66 c 1
 87 -20 68 -95 58 -136 c 1
 144 -136 241 -139 231 -140 c 1
 198 -181 l 1
 198 -181 -69 -180 -69 -180 c 1
 -58 -140 l 1
 -42 -138 -15 -137 17 -137 c 1
 39 -47 120 282 163 455 c 1
 100 449 49 438 49 438 c 1
 32 471 l 1
 32 471 97 489 173 496 c 1
 184 538 190 564 190 564 c 1
120 106 m 1
 158 84 187 78 230 78 c 0
 253 78 259 84 259 84 c 1
 259 84 376 194 393 368 c 1
 393 376 l 2
 393 442 314 459 232 459 c 0
 225 459 217 459 210 459 c 1
 186 367 151 229 120 106 c 1
EndSplineSet
EndChar

StartChar: q
Encoding: 113 113 19
Width: 425
GlyphClass: 2
Flags: MW
HStem: 462 37
VStem: 14 429
LayerCount: 2
Fore
SplineSet
389 -139 m 1
 381 -165 l 1
 381 -165 225 -195 225 -195 c 1
 225 -195 261 31 319 252 c 1
 223 128 101 36 101 36 c 1
 14 82 l 1
 30 261 91 422 120 437 c 0
 200 479 301 493 443 499 c 1
 354 262 277 -151 277 -151 c 1
 389 -139 l 1
56 106 m 1
 69 99 81 91 97 83 c 1
 122 102 266 224 349 359 c 1
 360 395 372 430 384 462 c 1
 270 450 215 433 136 401 c 0
 126 399 73 258 56 106 c 1
EndSplineSet
EndChar

StartChar: r
Encoding: 114 114 20
Width: 356
GlyphClass: 2
Flags: MW
HStem: -1 21G<104 104>
VStem: 139 49<438 485> 294 44<319.5 417.5>
LayerCount: 2
Fore
SplineSet
9 392 m 1
 13 423 l 1
 148 486 l 1
 188 485 l 1
 188 451 186 416 183 382 c 1
 322 500 l 1
 331 483 338 434 338 401 c 0
 338 348 331 297 331 297 c 1
 289 261 l 1
 292 284 294 308 294 331 c 0
 294 362 291 394 286 426 c 1
 178 341 l 1
 168 254 147 135 104 -1 c 1
 69 22 l 1
 135 229 139 438 139 438 c 1
 98 424 9 392 9 392 c 1
EndSplineSet
EndChar

StartChar: s
Encoding: 115 115 21
Width: 352
GlyphClass: 2
Flags: MW
HStem: -2 512<120 309>
VStem: 102 45<352 357 352 377.5>
LayerCount: 2
Fore
SplineSet
350 413 m 1
 339 367 l 1
 339 367 282 458 282 458 c 1
 267 453 l 2
 227 439 155 415 147 357 c 1
 147 352 l 1
 157 274 254 66 252 64 c 0
 234 47 120 -2 120 -2 c 1
 120 -2 33 82 6 167 c 1
 32 172 l 1
 48 121 124 42 124 42 c 1
 207 85 l 1
 162 204 102 287 102 346 c 0
 102 409 170 479 309 510 c 1
 309 510 350 413 350 413 c 1
EndSplineSet
EndChar

StartChar: t
Encoding: 116 116 22
Width: 288
GlyphClass: 2
Flags: MW
HStem: 489 41<37 42> 507 47<306 326>
VStem: 41 42<43 71>
LayerCount: 2
Fore
SplineSet
171 642 m 1xa0
 209 632 l 1
 209 632 199 596 184 542 c 1
 255 548 326 554 326 554 c 1
 306 507 l 1
 306 507 240 503 173 498 c 1x60
 139 369 92 177 83 71 c 1
 145 49 l 1
 162 70 201 121 248 188 c 1
 269 177 l 1
 212 87 158 3 158 3 c 1
 41 43 l 1
 49 158 96 358 132 495 c 1
 80 492 37 489 37 489 c 1
 42 530 l 1
 42 530 88 534 143 538 c 1
 159 601 171 642 171 642 c 1xa0
EndSplineSet
EndChar

StartChar: u
Encoding: 117 117 23
Width: 505
GlyphClass: 2
Flags: MW
HStem: -26 524<160 364>
VStem: 13 40
LayerCount: 2
Fore
SplineSet
160 498 m 1
 207 498 l 1
 130 370 61 208 53 58 c 1
 67 53 75 51 92 46 c 1
 126 83 313 322 379 496 c 1
 430 498 l 1
 430 498 313 38 313 38 c 1
 313 38 350 23 350 23 c 1
 376 58 475 191 475 191 c 1
 495 174 l 1
 495 174 364 -26 364 -26 c 1
 364 -26 261 18 261 18 c 1
 261 18 311 200 349 338 c 1
 249 169 111 -2 111 -2 c 1
 13 28 l 1
 15 247 136 459 157 494 c 0
 159 497 160 498 160 498 c 1
EndSplineSet
EndChar

StartChar: v
Encoding: 118 118 24
Width: 395
GlyphClass: 2
Flags: MW
HStem: 0 21G<129 129> 461 43<129 129>
VStem: 347 40<305 434>
LayerCount: 2
Fore
SplineSet
7 412 m 1
 8 443 l 1
 8 443 126 503 126 504 c 2
 182 504 l 1
 184 505 l 2
 179 505 94 69 94 69 c 1
 94 69 131 43 131 43 c 1
 167 60 347 181 347 429 c 0
 347 439 347 449 346 460 c 1
 386 464 l 1
 387 453 387 441 387 429 c 0
 387 126 129 0 129 0 c 1
 129 0 50 57 50 57 c 1
 50 57 113 380 129 461 c 1
 127 459 l 1
 7 412 l 1
EndSplineSet
EndChar

StartChar: w
Encoding: 119 119 25
Width: 723
GlyphClass: 2
Flags: MW
HStem: 462 42<152 152>
VStem: 29 699<412 497 443 497>
LayerCount: 2
Fore
SplineSet
29 412 m 1
 29 443 l 1
 29 443 148 503 148 504 c 2
 204 504 l 1
 206 505 l 2
 201 505 121 71 121 71 c 1
 127 67 l 2
 135 61 147 53 155 47 c 2
 161 43 l 1
 197 60 333 172 379 404 c 0
 381 414 385 430 385 437 c 1
 399 437 l 2
 438 438 438 438 438 438 c 2
 433 438 366 74 366 74 c 1
 366 74 410 41 410 41 c 1
 439 49 632 183 686 497 c 1
 728 497 l 1
 658 103 406 3 406 3 c 1
 406 3 328 59 328 59 c 1
 328 59 341 130 356 211 c 1
 276 53 156 2 156 2 c 1
 156 2 77 59 77 59 c 1
 77 59 137 385 152 462 c 1
 29 412 l 1
EndSplineSet
EndChar

StartChar: x
Encoding: 120 120 26
Width: 465
GlyphClass: 2
Flags: MW
HStem: 1 21G<49 49 289 339 289 289> 443 40
VStem: -9 479
LayerCount: 2
Fore
SplineSet
423 481 m 1
 470 482 l 1
 470 482 403 380 263 223 c 1
 299 117 334 13 339 1 c 1
 289 1 l 1
 283 16 258 98 231 187 c 1
 179 131 118 68 49 1 c 1
 -9 -3 l 1
 79 82 155 162 217 231 c 1
 189 324 162 415 154 443 c 1
 103 433 58 427 58 427 c 1
 57 483 l 1
 293 483 l 1
 276 471 233 459 188 450 c 1
 196 425 221 349 249 266 c 1
 363 396 423 481 423 481 c 1
EndSplineSet
EndChar

StartChar: y
Encoding: 121 121 27
Width: 441
GlyphClass: 2
Flags: MW
HStem: 457 43<318 335>
VStem: -15 30 124 37
LayerCount: 2
Fore
SplineSet
68 426 m 2
 104 457 l 1
 104 457 161 317 161 24 c 0
 161 9 160 -6 160 -22 c 1
 285 132 348 257 376 460 c 1
 359 458 342 457 328 457 c 0
 308 457 293 459 293 459 c 1
 292 500 l 1
 486 500 l 1
 469 486 448 476 426 470 c 1
 426 471 l 2
 425 458 392 108 50 -182 c 1
 -18 -136 l 1
 -18 -136 -12 -18 -12 -18 c 1
 13 6 l 1
 13 6 17 -110 17 -110 c 1
 58 -130 l 1
 82 -107 104 -86 124 -64 c 1
 123 288 73 426 68 426 c 2
EndSplineSet
EndChar

StartChar: z
Encoding: 122 122 28
Width: 390
GlyphClass: 2
Flags: MW
HStem: 0 45
VStem: 8 381<181 334>
LayerCount: 2
Fore
SplineSet
324 13 m 1
 324 13 20 0 20 0 c 1
 287 439 l 2
 286 439 160 452 94 459 c 1
 80 430 54 379 33 334 c 1
 8 334 l 1
 32 409 67 490 67 490 c 1
 76 511 l 1
 98 509 361 484 362 484 c 2
 97 45 l 1
 142 45 295 57 295 57 c 1
 313 92 346 159 364 198 c 1
 389 181 l 1
 363 123 324 13 324 13 c 1
EndSplineSet
EndChar

StartChar: A
Encoding: 65 65 29
Width: 691
GlyphClass: 2
Flags: MW
HStem: -1 42<1 82 19 82 122 223> 0 39<360 374> 200 39 682 20G
VStem: 487 41<40 40>
LayerCount: 2
Fore
SplineSet
1 -1 m 1xb8
 19 41 l 1
 82 41 l 1
 136 138 404 621 471 702 c 1
 518 694 566 687 619 679 c 1
 600 560 565 345 550 219 c 0
 542 149 532 80 528 40 c 1
 589 41 646 41 646 41 c 1xb8
 624 -2 l 1
 624 -2 361 0 360 0 c 2
 374 39 l 1x78
 374 39 428 39 487 40 c 1
 491 76 499 136 507 200 c 1
 444 200 247 199 211 199 c 1
 171 128 138 69 122 41 c 1
 241 41 l 1
 223 -1 l 1
 1 -1 l 1xb8
234 239 m 1
 300 239 462 240 512 240 c 1
 528 362 556 534 573 644 c 1
 545 648 517 653 487 658 c 1
 441 597 324 398 234 239 c 1
EndSplineSet
EndChar

StartChar: B
Encoding: 66 66 30
Width: 579
GlyphClass: 2
Flags: MW
HStem: -31 40<329.5 359 329.5 363> 282 40 660 40<395.5 454.5>
VStem: 511 40<166.5 215> 545 40<560.5 627.5>
LayerCount: 2
Fore
SplineSet
8 33 m 1xf0
 33 67 l 1
 43 65 61 60 84 55 c 1
 120 190 180 519 198 622 c 1
 134 604 83 586 67 580 c 0
 62 578 54 576 54 576 c 1
 54 616 l 1
 168 660 297 700 424 700 c 0
 505 700 585 673 585 610 c 0xe8
 585 511 433 388 313 326 c 1
 400 328 495 331 495 331 c 1
 495 331 551 270 551 193 c 0
 551 128 512 48 382 -29 c 0
 377 -30 369 -31 357 -31 c 0
 279 -31 87 9 8 33 c 1xf0
182 322 m 1
 183 322 185 322 186 322 c 0
 282 333 545 493 545 610 c 0
 545 645 485 660 424 660 c 0
 367 660 300 648 240 633 c 1
 231 584 208 453 182 322 c 1
122 46 m 1
 199 29 302 9 357 9 c 0
 361 9 367 9 371 10 c 0
 479 75 511 140 511 193 c 0xf0
 511 237 476 290 476 290 c 1
 434 289 218 283 174 282 c 1
 155 191 137 103 122 46 c 1
EndSplineSet
EndChar

StartChar: C
Encoding: 67 67 31
Width: 547
GlyphClass: 2
Flags: MW
HStem: 1 21G<259 273.5> 657 40<332 500 332 332>
VStem: 22 43<306 332.5 306 335.5> 514 38
LayerCount: 2
Fore
SplineSet
539 505 m 1
 497 482 l 1
 510 536 526 600 500 657 c 1
 332 657 l 1
 186 557 65 359 65 306 c 1
 103 117 243 61 259 50 c 1
 291 69 451 256 463 278 c 1
 507 279 l 1
 492 254 288 1 259 1 c 1
 220 17 63 88 22 303 c 1
 22 368 152 585 318 697 c 1
 523 697 l 1
 552 655 563 597 539 505 c 1
EndSplineSet
EndChar

StartChar: D
Encoding: 68 68 32
Width: 611
GlyphClass: 2
Flags: MW
HStem: -30 42<310 327> 662 40<369 402>
VStem: 558 43<435 435>
LayerCount: 2
Fore
SplineSet
34 597 m 2
 34 634 l 2
 35 635 246 702 394 702 c 0
 414 702 431 701 446 699 c 0
 523 686 601 580 601 435 c 0
 601 308 528 134 362 -22 c 0
 356 -27 334 -30 320 -30 c 0
 231 -30 -31 41 -30 41 c 2
 8 74 l 2
 9 74 28 68 58 60 c 1
 87 265 163 557 184 635 c 1
 101 617 35 598 34 597 c 2
97 50 m 1
 166 32 258 12 310 12 c 2
 343 12 l 1
 510 163 551 313 558 435 c 0
 565 560 500 649 440 659 c 0
 425 661 410 662 394 662 c 0
 344 662 284 654 227 644 c 1
 225 635 130 291 97 50 c 1
EndSplineSet
EndChar

StartChar: E
Encoding: 69 69 33
Width: 535
GlyphClass: 2
Flags: MW
HStem: 0 40<139 206 139 482> 338 40<199 432 192 451> 657 43
VStem: 566 16<700 700>
LayerCount: 2
Fore
SplineSet
60 655 m 1
 78 702 l 1
 78 702 566 700 566 700 c 1
 582 700 l 1
 582 700 583 640 583 640 c 1
 583 640 494 502 494 502 c 1
 458 502 l 1
 458 502 527 641 527 641 c 2
 527 644 525 651 523 660 c 1
 463 659 349 658 249 657 c 1
 199 378 l 1
 451 378 l 1
 432 338 l 1
 192 338 l 1
 139 40 l 1
 273 40 447 41 447 41 c 1
 515 208 l 1
 545 211 l 1
 511 97 482 0 482 0 c 1
 -31 0 l 1
 -9 39 l 1
 -9 39 35 39 95 39 c 1
 200 656 l 1
 121 656 60 655 60 655 c 1
EndSplineSet
EndChar

StartChar: F
Encoding: 70 70 34
Width: 558
GlyphClass: 2
Flags: MW
HStem: 1 38<-31 125> 328 50<228 249.5> 653 45
VStem: 548 56
LayerCount: 2
Fore
SplineSet
81 651 m 1
 99 698 l 1
 99 698 428 697 545 696 c 2
 606 697 l 1
 606 697 603 635 603 635 c 1
 603 635 521 499 521 499 c 1
 479 496 l 1
 479 496 548 637 548 637 c 2
 548 640 546 647 544 656 c 1
 486 655 379 654 282 653 c 1
 264 561 245 470 228 378 c 1
 501 378 l 1
 473 329 l 1
 473 329 280 328 219 328 c 1
 197 205 176 84 170 39 c 1
 291 39 l 1
 271 5 l 2
 269 5 -31 1 -31 1 c 1
 -10 39 l 1
 125 39 l 1
 137 120 207 491 231 652 c 1
 147 652 81 651 81 651 c 1
EndSplineSet
EndChar

StartChar: G
Encoding: 71 71 35
Width: 574
GlyphClass: 2
Flags: MW
HStem: 240 39 660 40<336 504 336 336>
VStem: 22 43<307 333.5 307 335.5> 518 38<586 602.5>
LayerCount: 2
Fore
SplineSet
543 508 m 1
 501 485 l 1
 509 518 518 555 518 591 c 0
 518 614 514 638 504 660 c 1
 336 660 l 1
 190 560 65 360 65 307 c 1
 103 118 238 41 258 29 c 1
 290 48 458 256 470 279 c 1
 514 279 l 2
 537 279 537 278 537 278 c 1
 537 262 451 -106 447 -106 c 2
 405 -115 l 2
 406 -117 464 139 485 240 c 1
 423 157 282 -19 259 -19 c 1
 220 -3 63 88 22 303 c 1
 22 368 156 588 322 700 c 1
 527 700 l 1
 545 674 556 642 556 599 c 0
 556 573 552 543 543 508 c 1
EndSplineSet
EndChar

StartChar: H
Encoding: 72 72 36
Width: 749
GlyphClass: 2
Flags: MW
HStem: -1 40 0 38<-8 127 -3 127 -3 242> 327 55 654 48<220.5 254> 658 42<725 725>
VStem: -8 769<0 700>
LayerCount: 2
Fore
SplineSet
-8 0 m 1x74
 -3 38 l 1
 -3 38 62 38 127 38 c 1
 144 120 233 552 254 654 c 1
 187 654 111 653 110 653 c 2
 138 702 l 1
 393 702 l 1
 360 655 l 1
 360 655 333 655 296 654 c 1
 288 611 265 499 241 382 c 1
 311 382 505 381 558 381 c 1
 583 501 606 614 615 657 c 1
 554 656 491 655 490 655 c 2x74
 509 700 l 1
 761 700 l 1
 725 658 l 1
 725 658 695 658 656 657 c 1
 638 567 551 146 529 39 c 1
 590 40 646 40 646 40 c 1
 628 1 l 1
 628 1 373 -1 373 -1 c 1
 382 39 l 1
 382 39 431 39 487 39 c 1
 496 82 521 202 547 327 c 1
 482 327 288 326 230 326 c 1
 205 203 180 84 171 39 c 1
 218 39 257 39 257 39 c 1xac
 242 0 l 1
 -8 0 l 1x74
EndSplineSet
EndChar

StartChar: I
Encoding: 73 73 37
Width: 324
GlyphClass: 2
Flags: MW
HStem: 0 39<-31 107 -11 107 148 219> 651 51
VStem: -31 385
LayerCount: 2
Fore
SplineSet
-31 0 m 1
 -11 39 l 1
 107 39 l 1
 191 651 l 1
 126 651 64 651 64 651 c 1
 84 701 l 1
 84 701 354 702 354 702 c 1
 334 652 l 1
 334 652 286 652 231 652 c 1
 148 39 l 1
 239 39 l 1
 219 0 l 1
 -31 0 l 1
EndSplineSet
EndChar

StartChar: J
Encoding: 74 74 38
Width: 492
GlyphClass: 2
Flags: MW
HStem: 651 50<227 520 249 369 420 420 420 502>
VStem: -60 580
LayerCount: 2
Fore
SplineSet
227 651 m 1
 249 701 l 1
 520 701 l 1
 502 651 l 1
 420 651 l 1
 409 568 355 291 120 -94 c 2
 100 -127 l 1
 39 -105 8 -75 -60 37 c 1
 -19 93 l 1
 21 18 51 -28 86 -64 c 1
 299 275 357 565 369 651 c 1
 227 651 l 1
EndSplineSet
EndChar

StartChar: K
Encoding: 75 75 39
Width: 676
GlyphClass: 2
Flags: MW
HStem: 1 41 658 40<42 326 65 198 238 238 238 295>
VStem: 133 41<41 41> 198 40<658 658>
LayerCount: 2
Fore
SplineSet
42 658 m 1
 65 698 l 1
 326 698 l 1
 295 658 l 1
 238 658 l 1
 234 618 224 519 212 409 c 1
 228 407 252 401 281 392 c 1xd0
 583 700 l 1
 593 696 l 1
 593 696 671 664 671 664 c 1
 641 506 l 1
 603 496 l 1
 611 651 l 1
 606 652 l 1
 322 376 l 1
 426 331 565 230 634 0 c 1
 584 14 l 1
 526 185 395 340 208 373 c 1
 194 239 180 99 174 41 c 1
 218 41 255 41 264 41 c 1
 238 1 l 1xf0
 238 1 -31 2 -31 2 c 1
 -14 42 l 1
 -14 42 61 42 133 41 c 1
 144 145 187 558 198 658 c 1
 42 658 l 1
EndSplineSet
EndChar

StartChar: L
Encoding: 76 76 40
Width: 570
GlyphClass: 2
Flags: MW
HStem: 4 36<8 164> 660 42<132 249 107 438 296 296 296 413>
VStem: 8 564<4 225>
LayerCount: 2
Fore
SplineSet
8 4 m 2
 36 40 l 1
 164 40 l 1
 249 660 l 1
 107 660 l 1
 132 702 l 1
 438 702 l 1
 413 660 l 1
 296 660 l 1
 210 40 l 1
 478 40 l 1
 540 217 l 1
 572 225 l 1
 528 3 l 1
 528 3 9 4 8 4 c 2
EndSplineSet
EndChar

StartChar: M
Encoding: 77 77 41
Width: 949
GlyphClass: 2
Flags: MW
HStem: -1 40<8 94 130 220 -13 94> 659 40<143 402 163 290 332 332 332 362> 661 39<799 979 861 880>
VStem: 362 40 384 40<119 200.5> 790 40<38 38>
LayerCount: 2
Fore
SplineSet
143 659 m 1xcc
 163 699 l 1
 402 699 l 1xd4
 402 699 402 663 404 634 c 0xcc
 414 463 424 291 424 119 c 1
 777 701 l 1
 777 701 861 700 861 700 c 1
 979 700 l 1
 954 660 l 1
 954 660 901 661 859 661 c 1
 853 535 835 135 830 38 c 1
 884 38 929 38 929 38 c 1
 909 -2 l 1
 909 -2 620 -1 620 -1 c 1
 641 39 l 1
 641 39 717 39 790 38 c 1
 797 146 830 661 830 661 c 1
 799 661 l 1
 673 461 541 225 415 26 c 1
 382 36 l 1
 383 54 384 102 384 126 c 0xac
 384 275 370 530 364 632 c 0
 363 640 362 659 362 659 c 1
 332 659 l 1xd4
 226 342 155 119 130 39 c 1
 248 39 l 1
 220 -1 l 1
 -13 -1 l 1
 8 39 l 1
 94 39 l 1
 104 73 165 278 220 443 c 0
 248 529 276 614 290 659 c 1
 143 659 l 1xcc
EndSplineSet
EndChar

StartChar: N
Encoding: 78 78 42
Width: 793
GlyphClass: 2
Flags: MW
HStem: 1 42<-15 3 3 3 3 258> 660 40<601 690 580 831 729 729 729 793> 666 33<126 333>
VStem: 690 39<660 660>
LayerCount: 2
Fore
SplineSet
-15 1 m 1xd0
 3 43 l 1
 3 43 52 43 109 42 c 1
 122 115 174 404 242 661 c 1
 203 663 126 666 126 666 c 1
 136 699 l 1
 333 699 l 1xb0
 333 699 538 196 642 64 c 1
 655 252 676 470 690 660 c 1
 580 660 l 1
 601 700 l 1
 831 700 l 1
 793 660 l 1
 729 660 l 1
 676 2 l 1
 645 2 l 1
 491 161 304 660 304 660 c 1
 282 660 l 1
 220 425 165 126 150 42 c 1
 224 41 297 41 297 41 c 1
 258 1 l 1
 -15 1 l 1xd0
EndSplineSet
EndChar

StartChar: O
Encoding: 79 79 43
Width: 539
GlyphClass: 2
Flags: MW
HStem: 1 40<87 212 87 226 58 212> 660 40
VStem: 22 40<209 365.5 209 382> 489 40<404.5 544.5>
LayerCount: 2
Fore
SplineSet
276 701 m 1
 498 701 l 1
 520 642 529 572 529 525 c 0
 529 244 226 1 226 1 c 1
 58 1 l 1
 32 83 22 175 22 236 c 0
 22 528 248 684 276 701 c 1
470 661 m 1
 285 660 l 1
 250 638 62 495 62 236 c 0
 62 182 68 106 87 41 c 1
 212 41 l 1
 246 70 489 284 489 525 c 0
 489 564 484 619 470 661 c 1
EndSplineSet
EndChar

StartChar: P
Encoding: 80 80 44
Width: 613
GlyphClass: 2
Flags: MW
HStem: 0 40<285 285> 663 40<434.5 508>
VStem: 107 40<41 41> 578 40<520 600.5>
LayerCount: 2
Fore
SplineSet
71 578 m 1
 66 619 l 1
 66 619 307 703 466 703 c 0
 580 703 618 655 618 572 c 0
 618 451 494 252 175 222 c 1
 174 229 l 1
 164 167 155 104 147 40 c 1
 226 40 305 40 305 40 c 1
 285 0 l 1
 285 0 -32 1 -32 1 c 1
 -12 41 l 1
 -12 41 43 41 107 41 c 1
 138 289 190 538 208 619 c 1
 130 599 71 578 71 578 c 1
180 263 m 1
 466 294 578 468 578 572 c 0
 578 629 550 663 466 663 c 0
 403 663 323 648 252 631 c 1
 244 595 210 443 180 263 c 1
EndSplineSet
EndChar

StartChar: Q
Encoding: 81 81 45
Width: 538
GlyphClass: 2
Flags: MW
HStem: -119 46<78 157> 1 40<86 211 86 225 57 211> 660 40
VStem: 21 40<209 365.5 209 382> 488 40<404.5 544.5>
LayerCount: 2
Fore
SplineSet
275 701 m 1
 497 701 l 1
 519 642 528 572 528 525 c 0
 528 244 225 1 225 1 c 1
 57 1 l 1
 31 83 21 175 21 236 c 0
 21 528 247 684 275 701 c 1
469 661 m 1
 284 660 l 1
 249 638 61 495 61 236 c 0
 61 182 67 106 86 41 c 1
 211 41 l 1
 245 70 488 284 488 525 c 0
 488 564 483 619 469 661 c 1
-30 -88 m 1
 -30 -88 29 -73 127 -73 c 0
 207 -73 316 -92 450 -127 c 1
 420 -155 l 1
 292 -122 196 -119 118 -119 c 0
 22 -119 -40 -133 -40 -133 c 1
 -30 -88 l 1
EndSplineSet
EndChar

StartChar: R
Encoding: 82 82 46
Width: 613
GlyphClass: 2
Flags: MW
HStem: 0 40<285 285> 663 40<434.5 508>
VStem: 107 40<41 41> 539 40 578 40<536 600.5>
LayerCount: 2
Fore
SplineSet
71 578 m 1xf0
 66 619 l 1
 66 619 307 703 466 703 c 0
 580 703 618 655 618 572 c 0xe8
 618 500 574 402 472 328 c 1
 520 298 595 210 576 -44 c 1
 536 -69 l 1
 537 -40 539 -3 539 17 c 0
 539 236 463 290 434 302 c 1
 367 263 282 234 174 224 c 1
 174 226 l 1
 164 165 155 103 147 40 c 1
 226 40 305 40 305 40 c 1
 285 0 l 1
 285 0 -32 1 -32 1 c 1
 -12 41 l 1
 -12 41 43 41 107 41 c 1
 138 289 190 538 208 619 c 1
 130 599 71 578 71 578 c 1xf0
180 265 m 1
 466 296 578 468 578 572 c 0
 578 629 550 663 466 663 c 0
 403 663 323 648 252 631 c 1
 244 595 211 444 180 265 c 1
EndSplineSet
EndChar

StartChar: S
Encoding: 83 83 49
Width: 500
GlyphClass: 2
Flags: MW
HStem: -36 40<229.5 311.5 229.5 318> 660 40<298 330.5>
VStem: 113 40<477 527 477 536.5> 403 40<131 161.5>
LayerCount: 2
Fore
SplineSet
7 126 m 1
 37 152 l 1
 37 152 170 4 289 4 c 0
 334 4 394 102 394 108 c 2
 394 108 403 121 403 141 c 0
 403 182 353 271 188 376 c 0
 135 408 113 450 113 491 c 0
 113 582 216 675 258 692 c 0
 271 697 285 700 304 700 c 0
 367 700 456 659 514 578 c 1
 503 532 l 1
 434 629 357 660 304 660 c 0
 292 660 282 657 273 654 c 2
 274 654 l 1
 239 639 153 563 153 491 c 0
 153 463 168 434 208 410 c 0
 409 289 443 192 443 141 c 0
 443 111 430 92 430 92 c 1
 433 99 l 2
 422 76 347 -36 289 -36 c 0
 152 -36 7 126 7 126 c 1
EndSplineSet
EndChar

StartChar: T
Encoding: 84 84 50
Width: 598
GlyphClass: 2
Flags: MW
HStem: 0 41<61 206> 659 40<92 316 92 92 362 362 362 595>
VStem: 4 640<517 700>
LayerCount: 2
Fore
SplineSet
339 1 m 1
 61 0 l 1
 80 41 l 1
 206 41 l 1
 222 132 298 559 316 659 c 1
 92 659 l 1
 76 618 41 526 41 526 c 1
 4 517 l 1
 4 517 64 698 64 698 c 1
 65 697 l 1
 65 699 l 1
 603 699 l 1
 644 700 l 1
 644 700 598 526 598 526 c 1
 568 519 l 1
 568 519 585 606 595 659 c 1
 362 659 l 1
 344 562 266 144 247 41 c 1
 368 41 l 1
 339 1 l 1
EndSplineSet
EndChar

StartChar: U
Encoding: 85 85 51
Width: 614
GlyphClass: 2
Flags: MW
HStem: -39 40<302 302> 653 50<167 282>
VStem: 62 40<171.5 230 171.5 231.5>
LayerCount: 2
Fore
SplineSet
35 652 m 1
 55 702 l 1
 55 702 282 703 282 703 c 1
 262 653 l 1
 262 653 217 653 167 653 c 1
 156 589 126 406 105 262 c 0
 103 249 102 236 102 224 c 0
 102 119 162 1 302 1 c 0
 401 1 506 524 531 653 c 1
 488 653 445 653 445 653 c 1
 465 703 l 1
 465 703 640 702 640 702 c 1
 620 652 l 1
 620 652 599 652 573 652 c 1
 550 523 446 -29 302 -39 c 0
 134 -50 62 101 62 224 c 0
 62 239 63 255 65 268 c 0
 85 405 114 581 126 652 c 1
 78 652 35 652 35 652 c 1
EndSplineSet
EndChar

StartChar: V
Encoding: 86 86 52
Width: 527
GlyphClass: 2
Flags: MW
HStem: 660 40<-5 313 15 124 164 164 164 261> 680 20
VStem: 127 40 466 61<680 680> 523 14<441 443>
LayerCount: 2
Fore
SplineSet
-5 660 m 1xa8
 15 700 l 1
 313 700 l 1
 261 660 l 1
 164 660 l 1xa8
 165 550 167 22 167 22 c 1
 189 24 220 26 220 26 c 1
 220 26 483 453 483 453 c 1
 482 481 466 680 466 680 c 1
 527 680 l 1x70
 527 680 536 477 537 443 c 0
 537 439 523 441 523 441 c 1
 523 441 242 -8 242 -8 c 1
 242 -8 127 -23 127 -23 c 1
 127 -23 125 546 124 660 c 1
 -5 660 l 1xa8
EndSplineSet
EndChar

StartChar: W
Encoding: 87 87 53
Width: 875
GlyphClass: 2
Flags: MW
HStem: 657 42 660 40<366 475 346 664 515 515 515 612> 680 20
VStem: 86 40 478 40 817 61<680 680> 874 14<441 443>
LayerCount: 2
Fore
SplineSet
-34 656 m 1x9a
 -21 698 l 1
 -21 698 240 699 240 699 c 1
 221 658 l 1
 221 658 177 658 126 657 c 1x98
 126 546 125 27 125 27 c 1
 125 27 172 32 172 32 c 1
 204 70 440 348 476 390 c 1
 476 508 475 617 475 660 c 1
 346 660 l 1
 366 700 l 1
 664 700 l 1
 612 660 l 1
 515 660 l 1x58
 516 550 518 22 518 22 c 1
 540 24 571 26 571 26 c 1
 571 26 834 453 834 453 c 1
 833 481 817 680 817 680 c 1
 878 680 l 1x3c
 878 680 887 477 888 443 c 0
 888 439 874 441 874 441 c 1
 874 441 593 -8 593 -8 c 1
 593 -8 478 -23 478 -23 c 1
 478 -23 477 153 476 329 c 1
 394 232 190 -7 190 -7 c 1
 190 -7 86 -21 86 -21 c 1
 86 -21 78 540 76 657 c 1
 19 657 -34 656 -34 656 c 1x9a
EndSplineSet
EndChar

StartChar: X
Encoding: 88 88 54
Width: 527
GlyphClass: 2
Flags: MW
HStem: -1 21G<-50 -50> 660 40<2 279 32 116 162 162 162 243 448 466>
VStem: -50 662
LayerCount: 2
Fore
SplineSet
2 660 m 1
 32 700 l 1
 279 700 l 1
 243 660 l 1
 162 660 l 1
 183 601 230 466 277 331 c 1
 390 482 446 607 466 660 c 1
 430 660 398 661 398 661 c 1
 418 700 l 1
 612 700 l 1
 566 658 l 1
 566 658 540 658 509 659 c 1
 493 613 435 470 290 291 c 1
 346 131 397 -16 397 -16 c 1
 349 -6 l 1
 349 -6 307 114 258 253 c 1
 191 175 107 91 3 6 c 1
 -50 -1 l 1
 74 97 170 198 245 291 c 1
 190 447 131 616 116 660 c 1
 2 660 l 1
EndSplineSet
EndChar

StartChar: Y
Encoding: 89 89 55
Width: 531
GlyphClass: 2
Flags: MW
HStem: -211 43 656 44<158 263> 659 42<431 431 431 486 414 431>
VStem: 191 45<117.5 280 117.5 292> 486 48<659 659>
LayerCount: 2
Fore
SplineSet
-1 656 m 1xd0
 20 698 l 1
 20 698 263 700 263 700 c 1
 233 656 l 1
 158 656 l 1xd0
 184 588 236 415 236 145 c 0
 236 90 233 46 228 -13 c 1
 443 252 480 575 486 659 c 1
 414 659 l 1
 431 701 l 1
 431 701 611 697 611 697 c 1
 592 659 l 1
 534 659 l 1xb8
 525 561 466 83 77 -207 c 0
 73 -210 67 -211 62 -211 c 0
 10 -211 -58 -122 -80 -77 c 0
 -88 -62 -92 -52 -92 -52 c 1
 -38 -22 l 1
 -33 -48 39 -169 70 -168 c 1
 112 -136 149 -101 183 -65 c 1
 190 10 191 84 191 145 c 0
 191 439 125 611 105 656 c 1
 -1 656 l 1xd0
EndSplineSet
EndChar

StartChar: Z
Encoding: 90 90 56
Width: 674
GlyphClass: 2
Flags: MW
HStem: 1 21G<-4 -4> 624 41<407.5 444.5> 684 20G
VStem: 156 40<515.5 556 515.5 562>
LayerCount: 2
Fore
SplineSet
224 458 m 1
 194 432 l 1
 194 432 156 476 156 541 c 0
 156 583 156 623 247 704 c 1
 275 694 351 665 464 665 c 0
 503 665 550 668 594 674 c 1
 629 713 650 737 650 737 c 1
 680 711 l 1
 680 711 97 51 97 51 c 1
 169 42 324 1 407 -63 c 1
 559 119 l 1
 585 94 l 1
 421 -129 l 1
 400 -111 l 1
 262 -17 -4 1 -4 1 c 1
 -4 1 380 433 560 635 c 1
 508 628 464 624 425 624 c 0
 314 624 279 642 247 656 c 1
 211 615 196 571 196 541 c 0
 196 490 224 458 224 458 c 1
EndSplineSet
EndChar

StartChar: bracketleft
Encoding: 91 91 57
Width: 297
GlyphClass: 2
Flags: MW
HStem: 1 34<74 209 74 211> 713 37
VStem: 34 284
LayerCount: 2
Fore
SplineSet
209 35 m 1
 211 1 l 1
 34 1 l 2
 34 4 143 751 143 751 c 1
 143 751 318 749 318 749 c 1
 301 713 l 1
 195 713 l 1
 177 601 74 34 74 35 c 2
 209 35 l 1
EndSplineSet
EndChar

StartChar: bracketright
Encoding: 93 93 58
Width: 277
GlyphClass: 2
Flags: MW
HStem: -3 36 690 20G<91 91 91 228> 710 33<91 91 91 228>
VStem: -1 268
LayerCount: 2
Fore
SplineSet
91 710 m 1xb0
 90 743 l 1
 267 743 l 2xb0
 267 742 174 -3 174 -3 c 1
 174 -3 -1 -2 -1 -2 c 1
 16 34 l 1
 122 34 l 1xd0
 139 147 227 711 228 710 c 2
 91 710 l 1xb0
EndSplineSet
EndChar

StartChar: oe
Encoding: 339 339 59
Width: 622
GlyphClass: 3
Flags: MW
HStem: -1 21G<175 175>
VStem: 18 40<105 245 105 264.5> 329 40<37 66> 369 38 576 39<417 417>
LayerCount: 2
Fore
SplineSet
598 188 m 1xe8
 622 168 l 1
 622 168 558 76 453 -10 c 1
 329 37 l 1xe8
 329 73 331 108 335 144 c 1
 267 49 175 -1 175 -1 c 1
 21 46 l 1
 21 51 l 2
 20 69 18 97 18 111 c 0
 18 418 225 500 226 500 c 2
 399 452 l 1
 403 433 405 416 407 401 c 1xd8
 427 439 452 473 484 499 c 1
 615 444 l 1
 615 303 496 211 376 161 c 1
 369 106 369 66 369 66 c 1
 395 56 419 46 447 36 c 1
 538 112 598 188 598 188 c 1xe8
365 417 m 1
 221 460 l 1
 212 456 58 379 58 111 c 0
 58 99 58 89 59 77 c 1
 167 41 l 1
 205 64 369 176 369 365 c 0
 369 382 369 396 365 417 c 1
576 417 m 1
 492 453 l 1
 428 397 397 290 382 203 c 1
 554 285 576 417 576 417 c 1
EndSplineSet
EndChar

StartChar: period
Encoding: 46 46 60
Width: 121
GlyphClass: 2
Flags: MW
HStem: 0 90<22 100>
VStem: 22 78
LayerCount: 2
Fore
SplineSet
32 90 m 1
 100 90 l 1
 100 90 85 2 85 2 c 1
 22 0 l 1
 22 0 32 90 32 90 c 1
EndSplineSet
EndChar

StartChar: comma
Encoding: 44 44 61
Width: 125
GlyphClass: 2
Flags: MW
HStem: -52 220<20 75>
VStem: -9 129
LayerCount: 2
Fore
SplineSet
75 168 m 1
 120 164 l 1
 120 164 89 58 20 -52 c 1
 -9 -30 l 1
 63 80 75 168 75 168 c 1
EndSplineSet
EndChar

StartChar: colon
Encoding: 58 58 62
Width: 159
GlyphClass: 2
Flags: MW
HStem: 4 88<18 71 8 86> 351 86
VStem: 8 150
LayerCount: 2
Fore
SplineSet
90 438 m 1
 158 438 l 1
 158 438 143 350 143 350 c 1
 78 353 l 1
 78 353 90 438 90 438 c 1
18 92 m 1
 86 92 l 1
 86 92 71 4 71 4 c 1
 8 4 l 1
 8 4 18 92 18 92 c 1
EndSplineSet
EndChar

StartChar: semicolon
Encoding: 59 59 63
Width: 219
GlyphClass: 2
Flags: MW
HStem: 354 89
VStem: 10 200
LayerCount: 2
Fore
SplineSet
210 443 m 1
 210 443 195 355 195 355 c 1
 132 353 l 1
 132 353 142 443 142 443 c 1
 210 443 l 1
94 158 m 1
 139 154 l 1
 139 154 108 48 39 -62 c 1
 10 -40 l 1
 82 70 94 158 94 158 c 1
EndSplineSet
EndChar

StartChar: dollar
Encoding: 36 36 64
Width: 514
GlyphClass: 2
Flags: MW
HStem: -36 40<277.5 311.5 277.5 318> 660 40<298 310.5>
VStem: 113 40<477 527 477 536.5> 403 40<131 156.5>
LayerCount: 2
Fore
SplineSet
7 126 m 1
 37 152 l 1
 37 152 109 72 195 29 c 1
 214 111 240 216 265 322 c 1
 243 339 217 357 188 376 c 0
 135 408 113 450 113 491 c 0
 113 582 216 675 258 692 c 0
 271 697 285 700 304 700 c 0
 320 700 337 698 354 693 c 1
 367 745 375 778 375 778 c 1
 403 778 l 1
 403 778 394 742 380 684 c 1
 428 665 477 630 514 578 c 1
 503 532 l 1
 460 593 413 628 371 645 c 1
 352 565 326 458 300 348 c 1
 420 256 443 183 443 141 c 0
 443 111 430 92 430 92 c 1
 433 99 l 2
 422 76 347 -36 289 -36 c 0
 263 -36 236 -30 211 -21 c 1
 196 -81 187 -119 187 -119 c 1
 159 -119 l 1
 159 -119 169 -76 185 -10 c 1
 88 36 7 126 7 126 c 1
273 654 m 2
 274 654 l 1
 239 639 153 563 153 491 c 0
 153 463 168 434 208 410 c 0
 233 395 256 380 276 366 c 1
 302 473 327 577 345 654 c 1
 330 658 317 660 304 660 c 0
 292 660 282 657 273 654 c 2
220 18 m 1
 243 9 266 4 289 4 c 0
 334 4 394 102 394 108 c 2
 394 108 403 121 403 141 c 0
 403 172 374 231 289 303 c 1
 263 199 239 96 220 18 c 1
EndSplineSet
EndChar

StartChar: ampersand
Encoding: 38 38 65
Width: 696
GlyphClass: 2
Flags: MW
HStem: 0 21G<175 175> 667 36
VStem: 0 40 168 40<500.5 559.5 500.5 574> 396 40<563 607>
LayerCount: 2
Fore
SplineSet
185 38 m 1
 323 58 414 110 475 164 c 1
 381 208 285 267 232 340 c 1
 219 336 52 291 40 183 c 0
 29 74 185 38 185 38 c 1
247 387 m 1
 323 413 396 485 396 570 c 0
 396 644 316 675 260 667 c 1
 249 653 208 599 208 520 c 0
 208 481 218 436 247 387 c 1
235 698 m 1
 250 702 266 703 282 703 c 0
 361 703 436 658 436 570 c 0
 436 556 435 542 430 527 c 1
 430 528 l 1
 400 415 309 369 270 354 c 1
 324 288 415 234 504 194 c 1
 572 268 588 340 588 340 c 1
 628 332 l 1
 628 332 611 258 540 178 c 1
 653 131 753 106 753 106 c 1
 727 72 l 1
 727 72 625 98 510 148 c 1
 442 84 337 23 175 0 c 1
 175 0 -15 44 0 187 c 0
 12 304 161 359 208 374 c 1
 179 426 168 477 168 520 c 0
 168 628 235 698 235 698 c 1
EndSplineSet
EndChar

StartChar: exclam
Encoding: 33 33 66
Width: 170
GlyphClass: 2
Flags: MW
HStem: 2 103
VStem: 3 171
LayerCount: 2
Fore
SplineSet
127 726 m 1
 174 727 l 1
 174 727 81 237 81 237 c 1
 35 219 l 1
 35 219 127 726 127 726 c 1
68 104 m 1
 68 104 51 2 51 2 c 1
 3 2 l 1
 3 2 10 106 10 106 c 1
 68 104 l 1
EndSplineSet
EndChar

StartChar: question
Encoding: 63 63 67
Width: 286
GlyphClass: 2
Flags: MW
HStem: 2 103 701 40<128 166 155 162>
VStem: 69 37<331 331> 241 40<589.5 621>
LayerCount: 2
Fore
SplineSet
155 287 m 1
 150 255 l 2
 148 255 69 305 69 331 c 0
 69 385 241 506 241 597 c 0
 241 645 208 696 162 701 c 1
 155 701 l 2
 101 701 78 623 78 623 c 1
 40 623 l 2
 40 624 59 741 155 741 c 2
 166 741 l 2
 243 738 281 663 281 597 c 0
 281 582 278 567 272 551 c 0
 254 504 204 449 164 405 c 2
 159 400 l 2
 150 390 108 350 106 331 c 1
 110 310 155 287 155 287 c 1
47 106 m 1
 115 104 l 1
 115 104 98 2 98 2 c 1
 40 2 l 1
 40 2 47 106 47 106 c 1
EndSplineSet
EndChar

StartChar: asterisk
Encoding: 42 42 68
Width: 387
GlyphClass: 2
Flags: MW
HStem: 526 40<364 366> 543 40<19 19.5>
VStem: 19 347<566 566 566 583 566 583>
LayerCount: 2
Fore
SplineSet
19 543 m 2x60
 19 583 l 2
 20 583 78 580 146 577 c 1x60
 95 636 51 687 51 687 c 1
 58 741 l 1
 58 741 122 666 189 587 c 1
 248 675 305 758 305 758 c 1
 331 728 l 1
 331 728 280 653 227 573 c 1
 301 569 366 566 366 566 c 1
 364 526 l 1
 364 526 305 529 235 532 c 1xa0
 291 467 338 411 338 411 c 1
 292 408 l 1
 292 408 245 462 193 523 c 1
 144 450 100 385 100 385 c 1
 52 385 l 1
 52 385 100 456 155 536 c 1
 83 540 20 543 19 543 c 2x60
EndSplineSet
EndChar

StartChar: parenleft
Encoding: 40 40 69
Width: 262
GlyphClass: 2
Flags: MW
HStem: 688 20G<271 271>
VStem: 25 40<-80.5 4 -80.5 6>
LayerCount: 2
Fore
SplineSet
66 -118 m 1
 29 -140 l 1
 29 -140 25 -98 25 -63 c 0
 25 75 47 465 271 708 c 1
 273 668 l 1
 81 420 65 71 65 -63 c 0
 65 -98 66 -118 66 -118 c 1
EndSplineSet
EndChar

StartChar: parenright
Encoding: 41 41 70
Width: 271
GlyphClass: 2
Flags: MW
HStem: -170 863<2 243>
VStem: 207 40<520.5 615>
LayerCount: 2
Fore
SplineSet
203 673 m 2
 243 693 l 2
 243 692 247 642 247 588 c 0
 247 450 224 112 2 -170 c 1
 0 -131 l 1
 199 203 207 453 207 588 c 0
 207 642 203 672 203 673 c 2
EndSplineSet
EndChar

StartChar: zero
Encoding: 48 48 72
Width: 494
GlyphClass: 2
Flags: MW
HStem: -7 48<111 181 111 204 76 181> 650 45
VStem: 20 55<191 302.5 191 354.5> 429 48<409.5 544>
LayerCount: 2
Fore
SplineSet
268 696 m 1
 433 696 l 1
 464 638 477 577 477 516 c 0
 477 296 308 78 204 -7 c 1
 76 -7 l 1
 36 74 20 150 20 221 c 0
 20 488 244 677 268 696 c 1
402 650 m 1
 296 651 l 1
 160 540 75 384 75 221 c 0
 75 161 86 100 111 41 c 1
 181 41 l 1
 214 59 429 297 429 522 c 0
 429 566 421 609 402 650 c 1
EndSplineSet
EndChar

StartChar: one
Encoding: 49 49 73
Width: 344
GlyphClass: 2
Flags: MW
HStem: -1 41
VStem: -6 345
LayerCount: 2
Fore
SplineSet
-6 2 m 1
 12 42 l 1
 12 42 65 42 128 41 c 1
 148 122 269 606 269 606 c 1
 214 572 139 518 139 518 c 1
 101 541 l 1
 101 541 310 695 310 695 c 1
 339 690 l 1
 318 599 204 147 178 40 c 1
 257 40 335 39 335 39 c 1
 306 -1 l 1
 306 -1 -6 2 -6 2 c 1
EndSplineSet
EndChar

StartChar: two
Encoding: 50 50 74
Width: 430
GlyphClass: 2
Flags: MW
HStem: 0 40<86 363> 662 42
VStem: 0 439
LayerCount: 2
Fore
SplineSet
130 570 m 1
 151 630 l 1
 197 673 283 715 335 701 c 1
 335 701 407 655 439 540 c 1
 439 540 397 403 86 40 c 1
 377 40 l 1
 363 0 l 1
 0 0 l 1
 335 392 397 541 397 541 c 1
 368 634 320 662 320 662 c 1
 251 671 130 570 130 570 c 1
EndSplineSet
EndChar

StartChar: three
Encoding: 51 51 75
Width: 332
GlyphClass: 2
Flags: MW
HStem: 364 40<169 183.5> 660 40<181.5 211>
VStem: 0 306
LayerCount: 2
Fore
SplineSet
18 -2 m 1
 0 34 l 1
 0 34 209 143 247 352 c 1
 222 359 193 364 174 364 c 0
 129 364 73 351 73 351 c 1
 74 391 l 1
 74 391 235 536 262 654 c 1
 248 657 225 660 197 660 c 0
 166 660 122 655 92 641 c 1
 74 677 l 1
 111 694 161 700 197 700 c 0
 246 700 306 686 306 686 c 1
 305 685 l 1
 306 685 l 1
 312 583 206 464 144 403 c 1
 154 403 164 404 174 404 c 0
 203 404 260 391 292 379 c 1
 266 126 18 -2 18 -2 c 1
EndSplineSet
EndChar

StartChar: four
Encoding: 52 52 76
Width: 452
GlyphClass: 2
Flags: MW
HStem: 217 41<20 86.5> 220 42<438 444> 635 64 679 20G<425 484 484 484>
VStem: -1 485<257 699>
LayerCount: 2
Fore
SplineSet
273 4 m 1x58
 235 14 l 1
 235 14 262 104 297 219 c 1
 174 218 20 217 20 217 c 1xa8
 3 252 l 1
 -1 257 l 1
 -1 257 425 699 425 699 c 1
 484 699 l 1
 484 699 411 459 351 261 c 1
 402 262 438 262 438 262 c 1
 444 220 l 1
 444 220 399 220 338 219 c 1
 302 99 273 4 273 4 c 1x58
55 258 m 1
 118 258 224 260 309 261 c 1
 349 395 396 550 422 635 c 1
 322 532 129 334 55 258 c 1
EndSplineSet
EndChar

StartChar: five
Encoding: 53 53 77
Width: 332
GlyphClass: 2
Flags: MW
HStem: 403 40 651 37<140 205>
VStem: -3 383
LayerCount: 2
Fore
SplineSet
19 6 m 1
 -3 40 l 1
 -3 40 219 156 258 387 c 1
 236 396 208 404 170 403 c 0
 141 402 80 393 52 384 c 1
 60 411 l 1
 60 411 134 666 134 666 c 1
 140 688 l 1
 140 688 380 689 380 689 c 1
 372 650 l 1
 372 650 239 651 171 651 c 1
 163 625 127 501 109 438 c 1
 124 440 147 443 174 443 c 0
 205 443 260 435 297 405 c 1
 283 150 19 6 19 6 c 1
EndSplineSet
EndChar

StartChar: six
Encoding: 54 54 78
Width: 394
GlyphClass: 2
Flags: MW
HStem: 397 33<211 241.5> 681 20G<349 349>
VStem: 1 34
LayerCount: 2
Fore
SplineSet
349 701 m 1
 406 696 l 1
 390 689 247 573 144 416 c 1
 163 422 193 430 229 430 c 0
 266 430 310 422 352 393 c 1
 332 170 118 -6 118 -6 c 1
 118 -6 11 31 11 31 c 1
 12 33 l 1
 11 32 l 1
 -58 321 266 648 349 701 c 1
37 65 m 1
 61 57 112 39 112 39 c 1
 138 57 293 191 310 377 c 1
 283 392 255 397 228 397 c 0
 170 397 121 374 116 371 c 0
 66 285 31 191 35 96 c 0
 35 86 36 75 37 65 c 1
EndSplineSet
EndChar

StartChar: seven
Encoding: 55 55 79
Width: 348
GlyphClass: 2
Flags: MW
HStem: 655 42<71 351 94 281>
VStem: 5 346
LayerCount: 2
Fore
SplineSet
71 655 m 1
 94 697 l 1
 351 697 l 1
 351 697 48 10 48 10 c 1
 5 37 l 1
 5 37 281 655 281 655 c 1
 71 655 l 1
EndSplineSet
EndChar

StartChar: eight
Encoding: 56 56 80
Width: 390
GlyphClass: 2
Flags: MW
HStem: -16 719<106 271 106 271>
VStem: 3 36<125 129 125 149.5> 108 40<596 600 600 608 608 608> 297 40<172 196 172 201.5>
LayerCount: 2
Fore
SplineSet
257 664 m 1
 271 703 l 1
 271 703 371 664 396 565 c 1
 358 562 l 1
 334 643 257 664 257 664 c 1
358 562 m 1
 396 565 l 1
 396 565 381 457 75 236 c 1
 53 264 l 1
 309 442 358 562 358 562 c 1
53 264 m 1
 75 236 l 1
 53 205 39 166 39 129 c 2
 39 125 l 2
 40 97 89 44 110 19 c 1
 106 -16 l 1
 61 9 3 90 3 126 c 0
 3 173 21 228 53 264 c 1
271 703 m 1
 257 664 l 1
 257 664 195 648 148 608 c 1
 108 608 l 1
 150 675 271 703 271 703 c 1
148 609 m 1
 148 600 l 2
 148 568 158 470 209 385 c 1
 182 362 l 1
 117 451 108 584 108 608 c 1
 108 608 108 608 148 609 c 1
182 362 m 1
 209 386 l 1
 213 379 337 231 337 172 c 1
 297 172 l 1
 297 220 189 351 182 362 c 1
106 -16 m 1
 110 19 l 1
 110 19 204 37 297 172 c 1
 337 172 l 1
 248 4 106 -16 106 -16 c 1
EndSplineSet
EndChar

StartChar: nine
Encoding: 57 57 81
Width: 460
GlyphClass: 2
Flags: MW
HStem: -1 21G<45 45> 259 39
VStem: 94 40<325 424 323.5 436>
LayerCount: 2
Fore
SplineSet
45 -1 m 1
 -17 -2 l 1
 -17 -2 126 86 258 268 c 1
 233 262 207 259 184 259 c 0
 144 259 111 265 100 268 c 1
 97 290 l 1
 96 290 l 2
 96 293 95 297 95 300 c 2
 95 302 l 2
 94 311 94 321 94 329 c 0
 94 543 256 687 259 687 c 0
 345 669 415 638 470 606 c 0
 469 604 467 600 456 569 c 0
 302 145 45 -1 45 -1 c 1
266 647 m 1
 266 646 l 2
 263 646 134 519 134 329 c 0
 134 318 135 309 136 298 c 1
 179 295 245 296 293 320 c 1
 342 396 388 485 421 589 c 1
 397 602 341 630 266 647 c 1
EndSplineSet
EndChar

StartChar: quotesingle
Encoding: 39 39 82
Width: 196
GlyphClass: 2
Flags: MW
HStem: 438 227<96 200>
VStem: 67 133
LayerCount: 2
Fore
SplineSet
152 665 m 1
 200 665 l 1
 200 665 154 548 96 438 c 1
 67 460 l 1
 112 572 152 665 152 665 c 1
EndSplineSet
EndChar

StartChar: acute
Encoding: 180 180 83
Width: 412
GlyphClass: 2
Flags: MW
HStem: 699 20G<301 301>
VStem: 157 144<602 719 629 719>
LayerCount: 2
Fore
SplineSet
157 602 m 1
 157 629 l 1
 157 629 234 675 301 719 c 1
 301 674 l 1
 157 602 l 1
EndSplineSet
EndChar

StartChar: grave
Encoding: 96 96 84
Width: 774
GlyphClass: 2
Flags: MW
HStem: 699 20G<247 247>
VStem: 247 144<602 719 602 719>
LayerCount: 2
Fore
SplineSet
391 629 m 1
 391 602 l 1
 247 674 l 1
 247 719 l 1
 314 675 391 629 391 629 c 1
EndSplineSet
EndChar

StartChar: circumflex
Encoding: 710 710 85
Width: 833
GlyphClass: 2
Flags: MW
HStem: 688 29
VStem: 193 251<622 637>
LayerCount: 2
Fore
SplineSet
205 605 m 1
 193 637 l 1
 193 637 265 686 302 716 c 1
 302 717 l 1
 302 717 350 715 350 715 c 1
 350 714 l 1
 350 714 381 677 444 622 c 1
 429 587 l 1
 379 631 340 672 325 688 c 1
 277 647 205 605 205 605 c 1
EndSplineSet
EndChar

StartChar: aacute
Encoding: 225 225 86
Width: 419
GlyphClass: 2
Flags: MW
HStem: -1 21G<104 104> 462 32 697 20G<329 329>
VStem: 3 408
LayerCount: 2
Fore
SplineSet
185 600 m 1
 185 627 l 1
 185 627 262 673 329 717 c 1
 329 672 l 1
 185 600 l 1
291 -12 m 1
 255 -6 l 1
 255 -6 256 20 308 234 c 1
 218 110 104 -1 104 -1 c 1
 3 55 l 1
 22 198 109 407 123 423 c 1
 237 489 386 494 411 494 c 1
 352 276 308 66 291 -12 c 1
47 75 m 1
 66 64 77 59 99 47 c 1
 132 77 266 216 335 341 c 1
 344 377 354 417 365 462 c 1
 299 462 199 425 145 389 c 0
 137 384 67 205 47 75 c 1
EndSplineSet
EndChar

StartChar: acircumflex
Encoding: 226 226 87
Width: 419
GlyphClass: 2
Flags: MW
HStem: -1 21G<104 104> 462 32 688 29
VStem: 3 408
LayerCount: 2
Fore
SplineSet
155 605 m 1
 143 637 l 1
 143 637 215 686 252 716 c 1
 252 717 l 1
 252 717 300 715 300 715 c 1
 300 714 l 1
 300 714 331 677 394 622 c 1
 379 587 l 1
 329 631 290 672 275 688 c 1
 227 647 155 605 155 605 c 1
291 -12 m 1
 255 -6 l 1
 255 -6 256 20 308 234 c 1
 218 110 104 -1 104 -1 c 1
 3 55 l 1
 22 198 109 407 123 423 c 1
 237 489 386 494 411 494 c 1
 352 276 308 66 291 -12 c 1
47 75 m 1
 66 64 77 59 99 47 c 1
 132 77 266 216 335 341 c 1
 344 377 354 417 365 462 c 1
 299 462 199 425 145 389 c 0
 137 384 67 205 47 75 c 1
EndSplineSet
EndChar

StartChar: agrave
Encoding: 224 224 88
Width: 419
GlyphClass: 2
Flags: MW
HStem: -1 21G<104 104> 462 32 699 20G<172 172>
VStem: 3 408 172 144<602 719 602 719>
LayerCount: 2
Fore
SplineSet
316 629 m 1xe8
 316 602 l 1
 172 674 l 1
 172 719 l 1
 239 675 316 629 316 629 c 1xe8
291 -12 m 1
 255 -6 l 1
 255 -6 256 20 308 234 c 1
 218 110 104 -1 104 -1 c 1
 3 55 l 1
 22 198 109 407 123 423 c 1
 237 489 386 494 411 494 c 1xf0
 352 276 308 66 291 -12 c 1
47 75 m 1
 66 64 77 59 99 47 c 1
 132 77 266 216 335 341 c 1
 344 377 354 417 365 462 c 1
 299 462 199 425 145 389 c 0
 137 384 67 205 47 75 c 1
EndSplineSet
EndChar

StartChar: egrave
Encoding: 232 232 89
Width: 341
GlyphClass: 2
Flags: MW
HStem: 1 21G<155 155> 699 20G<178 178>
VStem: 31 40<77 77 77 114> 178 144<602 719 602 719> 265 44<395.5 428 395.5 429>
LayerCount: 2
Fore
SplineSet
322 629 m 1xf0
 322 602 l 1
 178 674 l 1
 178 719 l 1
 245 675 322 629 322 629 c 1xf0
298 195 m 1
 317 183 l 1
 317 183 260 87 155 1 c 1
 32 47 l 1
 32 47 31 57 31 74 c 0
 31 154 43 391 176 500 c 1
 306 445 l 1
 306 445 309 436 309 420 c 0xe8
 309 371 284 256 77 166 c 1
 71 114 71 77 71 77 c 1
 97 67 121 57 149 47 c 1
 240 123 298 195 298 195 c 1
265 429 m 1
 187 461 l 1
 124 406 96 296 82 207 c 1
 180 246 265 317 265 429 c 1
EndSplineSet
EndChar

StartChar: eacute
Encoding: 233 233 90
Width: 351
GlyphClass: 2
Flags: MW
HStem: 1 21G<155 155> 699 20G<332 332>
VStem: 31 40<77 77 77 114> 265 44<395.5 428 395.5 429>
LayerCount: 2
Fore
SplineSet
188 602 m 1
 188 629 l 1
 188 629 265 675 332 719 c 1
 332 674 l 1
 188 602 l 1
298 195 m 1
 317 183 l 1
 317 183 260 87 155 1 c 1
 32 47 l 1
 32 47 31 57 31 74 c 0
 31 154 43 391 176 500 c 1
 306 445 l 1
 306 445 309 436 309 420 c 0
 309 371 284 256 77 166 c 1
 71 114 71 77 71 77 c 1
 97 67 121 57 149 47 c 1
 240 123 298 195 298 195 c 1
265 429 m 1
 187 461 l 1
 124 406 96 296 82 207 c 1
 180 246 265 317 265 429 c 1
EndSplineSet
EndChar

StartChar: ecircumflex
Encoding: 234 234 91
Width: 384
GlyphClass: 2
Flags: MW
HStem: 1 21G<155 155> 688 29
VStem: 31 40<77 77 77 114> 265 44<395.5 428 395.5 429>
LayerCount: 2
Fore
SplineSet
126 605 m 1
 114 637 l 1
 114 637 186 686 223 716 c 1
 223 717 l 1
 223 717 271 715 271 715 c 1
 271 714 l 1
 271 714 302 677 365 622 c 1
 350 587 l 1
 300 631 261 672 246 688 c 1
 198 647 126 605 126 605 c 1
298 195 m 1
 317 183 l 1
 317 183 260 87 155 1 c 1
 32 47 l 1
 32 47 31 57 31 74 c 0
 31 154 43 391 176 500 c 1
 306 445 l 1
 306 445 309 436 309 420 c 0
 309 371 284 256 77 166 c 1
 71 114 71 77 71 77 c 1
 97 67 121 57 149 47 c 1
 240 123 298 195 298 195 c 1
265 429 m 1
 187 461 l 1
 124 406 96 296 82 207 c 1
 180 246 265 317 265 429 c 1
EndSplineSet
EndChar

StartChar: oacute
Encoding: 243 243 92
Width: 426
GlyphClass: 2
Flags: MW
HStem: -1 21G<182 182> 689 20G<391 391>
VStem: 31 40<100 141.5 97.5 259> 367 40<274 385.5>
LayerCount: 2
Fore
SplineSet
247 592 m 1
 247 619 l 1
 247 619 324 665 391 709 c 1
 391 664 l 1
 247 592 l 1
228 498 m 2
 397 467 l 1
 404 429 407 400 407 376 c 0
 407 140 182 -1 182 -1 c 1
 34 35 l 1
 33 53 31 93 31 107 c 0
 31 411 227 498 228 498 c 2
363 430 m 1
 226 453 l 1
 88 346 71 176 71 107 c 0
 71 88 72 66 72 64 c 2
 175 41 l 1
 189 49 367 172 367 376 c 0
 367 395 367 407 363 430 c 1
EndSplineSet
EndChar

StartChar: ocircumflex
Encoding: 244 244 93
Width: 464
GlyphClass: 2
Flags: MW
HStem: -1 21G<182 182> 688 29
VStem: 31 40<100 141.5 97.5 259> 367 40<274 385.5>
LayerCount: 2
Fore
SplineSet
206 605 m 1
 194 637 l 1
 194 637 266 686 303 716 c 1
 303 717 l 1
 303 717 351 715 351 715 c 1
 351 714 l 1
 351 714 382 677 445 622 c 1
 430 587 l 1
 380 631 341 672 326 688 c 1
 278 647 206 605 206 605 c 1
228 498 m 2
 397 467 l 1
 404 429 407 400 407 376 c 0
 407 140 182 -1 182 -1 c 1
 34 35 l 1
 33 53 31 93 31 107 c 0
 31 411 227 498 228 498 c 2
363 430 m 1
 226 453 l 1
 88 346 71 176 71 107 c 0
 71 88 72 66 72 64 c 2
 175 41 l 1
 189 49 367 172 367 376 c 0
 367 395 367 407 363 430 c 1
EndSplineSet
EndChar

StartChar: ograve
Encoding: 242 242 94
Width: 426
GlyphClass: 2
Flags: MW
HStem: -1 21G<182 182> 699 20G<237 237>
VStem: 31 40<100 141.5 97.5 259> 237 144<602 719 602 719> 367 40<274 385.5>
LayerCount: 2
Fore
SplineSet
381 629 m 1xf0
 381 602 l 1
 237 674 l 1
 237 719 l 1
 304 675 381 629 381 629 c 1xf0
228 498 m 2
 397 467 l 1
 404 429 407 400 407 376 c 0xe8
 407 140 182 -1 182 -1 c 1
 34 35 l 1
 33 53 31 93 31 107 c 0
 31 411 227 498 228 498 c 2
363 430 m 1
 226 453 l 1
 88 346 71 176 71 107 c 0
 71 88 72 66 72 64 c 2
 175 41 l 1
 189 49 367 172 367 376 c 0
 367 395 367 407 363 430 c 1
EndSplineSet
EndChar

StartChar: ugrave
Encoding: 249 249 95
Width: 505
GlyphClass: 2
Flags: MW
HStem: 699 20G<207 207>
VStem: 13 40 207 144<498 629 602 719 602 719>
LayerCount: 2
Fore
SplineSet
351 629 m 1
 351 602 l 1
 207 674 l 1
 207 719 l 1
 274 675 351 629 351 629 c 1
160 498 m 1
 207 498 l 1
 130 370 61 208 53 58 c 1
 67 53 75 51 92 46 c 1
 126 83 313 322 379 496 c 1
 430 498 l 1
 430 498 313 38 313 38 c 1
 313 38 350 23 350 23 c 1
 376 58 475 191 475 191 c 1
 495 174 l 1
 495 174 364 -26 364 -26 c 1
 364 -26 261 18 261 18 c 1
 261 18 311 200 349 338 c 1
 249 169 111 -2 111 -2 c 1
 13 28 l 1
 15 247 136 459 157 494 c 0
 159 497 160 498 160 498 c 1
EndSplineSet
EndChar

StartChar: uacute
Encoding: 250 250 96
Width: 505
GlyphClass: 2
Flags: MW
HStem: 699 20G<370 370>
VStem: 13 40 226 144<602 719 629 719>
LayerCount: 2
Fore
SplineSet
226 602 m 1
 226 629 l 1
 226 629 303 675 370 719 c 1
 370 674 l 1
 226 602 l 1
160 498 m 1
 207 498 l 1
 130 370 61 208 53 58 c 1
 67 53 75 51 92 46 c 1
 126 83 313 322 379 496 c 1
 430 498 l 1
 430 498 313 38 313 38 c 1
 313 38 350 23 350 23 c 1
 376 58 475 191 475 191 c 1
 495 174 l 1
 495 174 364 -26 364 -26 c 1
 364 -26 261 18 261 18 c 1
 261 18 311 200 349 338 c 1
 249 169 111 -2 111 -2 c 1
 13 28 l 1
 15 247 136 459 157 494 c 0
 159 497 160 498 160 498 c 1
EndSplineSet
EndChar

StartChar: ucircumflex
Encoding: 251 251 97
Width: 505
GlyphClass: 2
Flags: MW
HStem: 688 29
VStem: 13 40
LayerCount: 2
Fore
SplineSet
185 605 m 1
 173 637 l 1
 173 637 245 686 282 716 c 1
 282 717 l 1
 282 717 330 715 330 715 c 1
 330 714 l 1
 330 714 361 677 424 622 c 1
 409 587 l 1
 359 631 320 672 305 688 c 1
 257 647 185 605 185 605 c 1
160 498 m 1
 207 498 l 1
 130 370 61 208 53 58 c 1
 67 53 75 51 92 46 c 1
 126 83 313 322 379 496 c 1
 430 498 l 1
 430 498 313 38 313 38 c 1
 313 38 350 23 350 23 c 1
 376 58 475 191 475 191 c 1
 495 174 l 1
 495 174 364 -26 364 -26 c 1
 364 -26 261 18 261 18 c 1
 261 18 311 200 349 338 c 1
 249 169 111 -2 111 -2 c 1
 13 28 l 1
 15 247 136 459 157 494 c 0
 159 497 160 498 160 498 c 1
EndSplineSet
EndChar

StartChar: Agrave
Encoding: 192 192 98
Width: 613
GlyphClass: 2
Flags: MW
HStem: -1 42<-19 62 -1 62 102 203> 0 39<340 354> 200 39 682 20G
VStem: 467 41<40 40> 470 144<751 868 751 868>
LayerCount: 2
Fore
SplineSet
614 778 m 1xb4
 614 751 l 1
 470 823 l 1
 470 868 l 1
 537 824 614 778 614 778 c 1xb4
-19 -1 m 1
 -1 41 l 1
 62 41 l 1
 116 138 384 621 451 702 c 1
 498 694 546 687 599 679 c 1
 580 560 545 345 530 219 c 0
 522 149 512 80 508 40 c 1
 569 41 626 41 626 41 c 1xb8
 604 -2 l 1
 604 -2 341 0 340 0 c 2
 354 39 l 1
 354 39 408 39 467 40 c 1x78
 471 76 479 136 487 200 c 1
 424 200 227 199 191 199 c 1
 151 128 118 69 102 41 c 1
 221 41 l 1
 203 -1 l 1
 -19 -1 l 1
214 239 m 1
 280 239 442 240 492 240 c 1
 508 362 536 534 553 644 c 1
 525 648 497 653 467 658 c 1
 421 597 304 398 214 239 c 1
EndSplineSet
EndChar

StartChar: Aacute
Encoding: 193 193 99
Width: 609
GlyphClass: 2
Flags: MW
HStem: -1 42<-19 62 -1 62 102 203> 0 39<340 354> 200 39 682 20G
VStem: 467 41<40 40>
LayerCount: 2
Fore
SplineSet
462 751 m 1xb8
 462 778 l 1
 462 778 539 824 606 868 c 1
 606 823 l 1
 462 751 l 1xb8
-19 -1 m 1
 -1 41 l 1
 62 41 l 1
 116 138 384 621 451 702 c 1
 498 694 546 687 599 679 c 1
 580 560 545 345 530 219 c 0
 522 149 512 80 508 40 c 1
 569 41 626 41 626 41 c 1xb8
 604 -2 l 1
 604 -2 341 0 340 0 c 2
 354 39 l 1x78
 354 39 408 39 467 40 c 1
 471 76 479 136 487 200 c 1
 424 200 227 199 191 199 c 1
 151 128 118 69 102 41 c 1
 221 41 l 1
 203 -1 l 1
 -19 -1 l 1
214 239 m 1
 280 239 442 240 492 240 c 1
 508 362 536 534 553 644 c 1
 525 648 497 653 467 658 c 1
 421 597 304 398 214 239 c 1
EndSplineSet
EndChar

StartChar: Acircumflex
Encoding: 194 194 100
Width: 609
GlyphClass: 2
Flags: MW
HStem: -1 42<-19 62 -1 62 102 203> 0 39<340 354> 200 39 682 20G 832 28
VStem: 467 41<40 40>
LayerCount: 2
Fore
SplineSet
421 749 m 1xbc
 409 781 l 1
 409 781 481 830 518 860 c 1
 518 861 l 1
 518 861 566 859 566 859 c 1
 566 858 l 1
 566 858 597 821 660 766 c 1
 645 731 l 1
 595 775 556 816 541 832 c 1
 493 791 421 749 421 749 c 1xbc
-19 -1 m 1
 -1 41 l 1
 62 41 l 1
 116 138 384 621 451 702 c 1
 498 694 546 687 599 679 c 1
 580 560 545 345 530 219 c 0
 522 149 512 80 508 40 c 1
 569 41 626 41 626 41 c 1xbc
 604 -2 l 1
 604 -2 341 0 340 0 c 2
 354 39 l 1x7c
 354 39 408 39 467 40 c 1
 471 76 479 136 487 200 c 1
 424 200 227 199 191 199 c 1
 151 128 118 69 102 41 c 1
 221 41 l 1
 203 -1 l 1
 -19 -1 l 1
214 239 m 1
 280 239 442 240 492 240 c 1
 508 362 536 534 553 644 c 1
 525 648 497 653 467 658 c 1
 421 597 304 398 214 239 c 1
EndSplineSet
EndChar

StartChar: Egrave
Encoding: 200 200 101
Width: 609
GlyphClass: 2
Flags: MW
HStem: 0 40<171 238 171 514> 338 40<231 464 224 483> 657 43
VStem: 271 144<748 865 748 865> 598 16<700 700>
LayerCount: 2
Fore
SplineSet
415 775 m 1
 415 748 l 1
 271 820 l 1
 271 865 l 1
 338 821 415 775 415 775 c 1
92 655 m 1
 110 702 l 1
 110 702 598 700 598 700 c 1
 614 700 l 1
 614 700 615 640 615 640 c 1
 615 640 526 502 526 502 c 1
 490 502 l 1
 490 502 559 641 559 641 c 2
 559 644 557 651 555 660 c 1
 495 659 381 658 281 657 c 1
 231 378 l 1
 483 378 l 1
 464 338 l 1
 224 338 l 1
 171 40 l 1
 305 40 479 41 479 41 c 1
 547 208 l 1
 577 211 l 1
 543 97 514 0 514 0 c 1
 1 0 l 1
 23 39 l 1
 23 39 67 39 127 39 c 1
 232 656 l 1
 153 656 92 655 92 655 c 1
EndSplineSet
EndChar

StartChar: Eacute
Encoding: 201 201 102
Width: 614
GlyphClass: 2
Flags: MW
HStem: 0 40<171 238 171 514> 338 40<231 464 224 483> 657 43
VStem: 252 144<751 868 778 868> 598 16<700 700>
LayerCount: 2
Fore
SplineSet
252 751 m 1
 252 778 l 1
 252 778 329 824 396 868 c 1
 396 823 l 1
 252 751 l 1
92 655 m 1
 110 702 l 1
 110 702 598 700 598 700 c 1
 614 700 l 1
 614 700 615 640 615 640 c 1
 615 640 526 502 526 502 c 1
 490 502 l 1
 490 502 559 641 559 641 c 2
 559 644 557 651 555 660 c 1
 495 659 381 658 281 657 c 1
 231 378 l 1
 483 378 l 1
 464 338 l 1
 224 338 l 1
 171 40 l 1
 305 40 479 41 479 41 c 1
 547 208 l 1
 577 211 l 1
 543 97 514 0 514 0 c 1
 1 0 l 1
 23 39 l 1
 23 39 67 39 127 39 c 1
 232 656 l 1
 153 656 92 655 92 655 c 1
EndSplineSet
EndChar

StartChar: Ecircumflex
Encoding: 202 202 103
Width: 609
GlyphClass: 2
Flags: MW
HStem: 0 40<171 238 171 514> 338 40<231 464 224 483> 657 43 831 28
VStem: 598 16<700 700>
LayerCount: 2
Fore
SplineSet
259 748 m 1
 247 780 l 1
 247 780 319 829 356 859 c 1
 356 860 l 1
 356 860 404 858 404 858 c 1
 404 857 l 1
 404 857 435 820 498 765 c 1
 483 730 l 1
 433 774 394 815 379 831 c 1
 331 790 259 748 259 748 c 1
92 655 m 1
 110 702 l 1
 110 702 598 700 598 700 c 1
 614 700 l 1
 614 700 615 640 615 640 c 1
 615 640 526 502 526 502 c 1
 490 502 l 1
 490 502 559 641 559 641 c 2
 559 644 557 651 555 660 c 1
 495 659 381 658 281 657 c 1
 231 378 l 1
 483 378 l 1
 464 338 l 1
 224 338 l 1
 171 40 l 1
 305 40 479 41 479 41 c 1
 547 208 l 1
 577 211 l 1
 543 97 514 0 514 0 c 1
 1 0 l 1
 23 39 l 1
 23 39 67 39 127 39 c 1
 232 656 l 1
 153 656 92 655 92 655 c 1
EndSplineSet
EndChar

StartChar: Igrave
Encoding: 204 204 104
Width: 356
GlyphClass: 2
Flags: MW
HStem: 0 39<-19 119 1 119 160 231> 651 51
VStem: -19 385 153 144<750 867 750 867>
LayerCount: 2
Fore
SplineSet
297 777 m 1xd0
 297 750 l 1
 153 822 l 1
 153 867 l 1
 220 823 297 777 297 777 c 1xd0
-19 0 m 1
 1 39 l 1
 119 39 l 1
 203 651 l 1
 138 651 76 651 76 651 c 1
 96 701 l 1
 96 701 366 702 366 702 c 1
 346 652 l 1
 346 652 298 652 243 652 c 1
 160 39 l 1
 251 39 l 1
 231 0 l 1
 -19 0 l 1
EndSplineSet
EndChar

StartChar: Iacute
Encoding: 205 205 105
Width: 356
GlyphClass: 2
Flags: MW
HStem: 0 39<-19 119 1 119 160 231> 651 51
VStem: -19 385 153 144<750 867 777 867>
LayerCount: 2
Fore
SplineSet
153 750 m 1xd0
 153 777 l 1
 153 777 230 823 297 867 c 1
 297 822 l 1
 153 750 l 1xd0
-19 0 m 1
 1 39 l 1
 119 39 l 1
 203 651 l 1
 138 651 76 651 76 651 c 1
 96 701 l 1
 96 701 366 702 366 702 c 1
 346 652 l 1
 346 652 298 652 243 652 c 1
 160 39 l 1
 251 39 l 1
 231 0 l 1
 -19 0 l 1
EndSplineSet
EndChar

StartChar: Icircumflex
Encoding: 206 206 106
Width: 356
GlyphClass: 2
Flags: MW
HStem: 0 39<-19 119 1 119 160 231> 651 51 834 28
VStem: -19 385
LayerCount: 2
Fore
SplineSet
115 751 m 1
 103 783 l 1
 103 783 175 832 212 862 c 1
 212 863 l 1
 212 863 260 861 260 861 c 1
 260 860 l 1
 260 860 291 823 354 768 c 1
 339 733 l 1
 289 777 250 818 235 834 c 1
 187 793 115 751 115 751 c 1
-19 0 m 1
 1 39 l 1
 119 39 l 1
 203 651 l 1
 138 651 76 651 76 651 c 1
 96 701 l 1
 96 701 366 702 366 702 c 1
 346 652 l 1
 346 652 298 652 243 652 c 1
 160 39 l 1
 251 39 l 1
 231 0 l 1
 -19 0 l 1
EndSplineSet
EndChar

StartChar: Ograve
Encoding: 210 210 107
Width: 555
GlyphClass: 2
Flags: MW
HStem: 1 40<96 221 96 235 67 221> 660 40
VStem: 31 40<209 365.5 209 382> 305 144<748 865 748 865> 498 40<404.5 544.5>
LayerCount: 2
Fore
SplineSet
449 775 m 1
 449 748 l 1
 305 820 l 1
 305 865 l 1
 372 821 449 775 449 775 c 1
285 701 m 1
 507 701 l 1
 529 642 538 572 538 525 c 0
 538 244 235 1 235 1 c 1
 67 1 l 1
 41 83 31 175 31 236 c 0
 31 528 257 684 285 701 c 1
479 661 m 1
 294 660 l 1
 259 638 71 495 71 236 c 0
 71 182 77 106 96 41 c 1
 221 41 l 1
 255 70 498 284 498 525 c 0
 498 564 493 619 479 661 c 1
EndSplineSet
EndChar

StartChar: Oacute
Encoding: 211 211 108
Width: 539
GlyphClass: 2
Flags: MW
HStem: 1 40<85 210 85 224 56 210> 660 40
VStem: 20 40<209 365.5 209 382> 487 40<404.5 544.5>
LayerCount: 2
Fore
SplineSet
296 750 m 1
 296 777 l 1
 296 777 373 823 440 867 c 1
 440 822 l 1
 296 750 l 1
274 701 m 1
 496 701 l 1
 518 642 527 572 527 525 c 0
 527 244 224 1 224 1 c 1
 56 1 l 1
 30 83 20 175 20 236 c 0
 20 528 246 684 274 701 c 1
468 661 m 1
 283 660 l 1
 248 638 60 495 60 236 c 0
 60 182 66 106 85 41 c 1
 210 41 l 1
 244 70 487 284 487 525 c 0
 487 564 482 619 468 661 c 1
EndSplineSet
EndChar

StartChar: Ocircumflex
Encoding: 212 212 109
Width: 547
GlyphClass: 2
Flags: MW
HStem: 1 40<89 214 89 228 60 214> 660 40 833 28
VStem: 24 40<209 365.5 209 382> 491 40<404.5 544.5>
LayerCount: 2
Fore
SplineSet
257 750 m 1
 245 782 l 1
 245 782 317 831 354 861 c 1
 354 862 l 1
 354 862 402 860 402 860 c 1
 402 859 l 1
 402 859 433 822 496 767 c 1
 481 732 l 1
 431 776 392 817 377 833 c 1
 329 792 257 750 257 750 c 1
278 701 m 1
 500 701 l 1
 522 642 531 572 531 525 c 0
 531 244 228 1 228 1 c 1
 60 1 l 1
 34 83 24 175 24 236 c 0
 24 528 250 684 278 701 c 1
472 661 m 1
 287 660 l 1
 252 638 64 495 64 236 c 0
 64 182 70 106 89 41 c 1
 214 41 l 1
 248 70 491 284 491 525 c 0
 491 564 486 619 472 661 c 1
EndSplineSet
EndChar

StartChar: Ugrave
Encoding: 217 217 110
Width: 590
GlyphClass: 2
Flags: MW
HStem: -39 40<272 272> 653 50<137 252>
VStem: 32 40<171.5 230 171.5 231.5> 248 144<751 868 751 868>
LayerCount: 2
Fore
SplineSet
392 778 m 1
 392 751 l 1
 248 823 l 1
 248 868 l 1
 315 824 392 778 392 778 c 1
5 652 m 1
 25 702 l 1
 25 702 252 703 252 703 c 1
 232 653 l 1
 232 653 187 653 137 653 c 1
 126 589 96 406 75 262 c 0
 73 249 72 236 72 224 c 0
 72 119 132 1 272 1 c 0
 371 1 476 524 501 653 c 1
 458 653 415 653 415 653 c 1
 435 703 l 1
 435 703 610 702 610 702 c 1
 590 652 l 1
 590 652 569 652 543 652 c 1
 520 523 416 -29 272 -39 c 0
 104 -50 32 101 32 224 c 0
 32 239 33 255 35 268 c 0
 55 405 84 581 96 652 c 1
 48 652 5 652 5 652 c 1
EndSplineSet
EndChar

StartChar: Uacute
Encoding: 218 218 111
Width: 590
GlyphClass: 2
Flags: MW
HStem: -39 40<272 272> 653 50<137 252>
VStem: 32 40<171.5 230 171.5 231.5> 267 144<748 865 775 865>
LayerCount: 2
Fore
SplineSet
267 748 m 1
 267 775 l 1
 267 775 344 821 411 865 c 1
 411 820 l 1
 267 748 l 1
5 652 m 1
 25 702 l 1
 25 702 252 703 252 703 c 1
 232 653 l 1
 232 653 187 653 137 653 c 1
 126 589 96 406 75 262 c 0
 73 249 72 236 72 224 c 0
 72 119 132 1 272 1 c 0
 371 1 476 524 501 653 c 1
 458 653 415 653 415 653 c 1
 435 703 l 1
 435 703 610 702 610 702 c 1
 590 652 l 1
 590 652 569 652 543 652 c 1
 520 523 416 -29 272 -39 c 0
 104 -50 32 101 32 224 c 0
 32 239 33 255 35 268 c 0
 55 405 84 581 96 652 c 1
 48 652 5 652 5 652 c 1
EndSplineSet
EndChar

StartChar: Ucircumflex
Encoding: 219 219 112
Width: 590
GlyphClass: 2
Flags: MW
HStem: -39 40<272 272> 653 50<137 252> 834 28
VStem: 32 40<171.5 230 171.5 231.5>
LayerCount: 2
Fore
SplineSet
223 751 m 1
 211 783 l 1
 211 783 283 832 320 862 c 1
 320 863 l 1
 320 863 368 861 368 861 c 1
 368 860 l 1
 368 860 399 823 462 768 c 1
 447 733 l 1
 397 777 358 818 343 834 c 1
 295 793 223 751 223 751 c 1
5 652 m 1
 25 702 l 1
 25 702 252 703 252 703 c 1
 232 653 l 1
 232 653 187 653 137 653 c 1
 126 589 96 406 75 262 c 0
 73 249 72 236 72 224 c 0
 72 119 132 1 272 1 c 0
 371 1 476 524 501 653 c 1
 458 653 415 653 415 653 c 1
 435 703 l 1
 435 703 610 702 610 702 c 1
 590 652 l 1
 590 652 569 652 543 652 c 1
 520 523 416 -29 272 -39 c 0
 104 -50 32 101 32 224 c 0
 32 239 33 255 35 268 c 0
 55 405 84 581 96 652 c 1
 48 652 5 652 5 652 c 1
EndSplineSet
EndChar

StartChar: Yacute
Encoding: 221 221 113
Width: 522
GlyphClass: 2
Flags: MW
HStem: -211 43 656 44<94 199> 659 42<367 367 367 422 350 367>
VStem: 127 45<117.5 280 117.5 292> 238 144<749 866 776 866> 422 48<659 659>
LayerCount: 2
Fore
SplineSet
238 749 m 1xd8
 238 776 l 1
 238 776 315 822 382 866 c 1
 382 821 l 1
 238 749 l 1xd8
-65 656 m 1
 -44 698 l 1
 -44 698 199 700 199 700 c 1
 169 656 l 1
 94 656 l 1xd8
 120 588 172 415 172 145 c 0
 172 90 169 46 164 -13 c 1
 379 252 416 575 422 659 c 1
 350 659 l 1
 367 701 l 1
 367 701 547 697 547 697 c 1
 528 659 l 1
 470 659 l 1xbc
 461 561 402 83 13 -207 c 0
 9 -210 3 -211 -2 -211 c 0
 -54 -211 -122 -122 -144 -77 c 0
 -152 -62 -156 -52 -156 -52 c 1
 -102 -22 l 1
 -97 -48 -25 -169 6 -168 c 1
 48 -136 85 -101 119 -65 c 1
 126 10 127 84 127 145 c 0
 127 439 61 611 41 656 c 1
 -65 656 l 1
EndSplineSet
EndChar

StartChar: tilde
Encoding: 732 732 114
Width: 833
GlyphClass: 2
Flags: MW
HStem: 563 38<386.5 405.5 385 411.5> 587 38<247 287>
VStem: 169 288<577 593>
LayerCount: 2
Fore
SplineSet
182 543 m 2x60
 169 577 l 1
 169 577 202 625 276 625 c 2
 287 625 l 1x60
 287 625 366 601 404 601 c 0
 407 601 410 601 413 602 c 2
 432 621 l 1
 457 593 l 1
 439 568 423 564 423 564 c 2xa0
 419 563 414 563 409 563 c 0
 364 563 276 587 276 587 c 1
 218 587 182 544 182 543 c 2x60
EndSplineSet
EndChar

StartChar: ntilde
Encoding: 241 241 115
Width: 450
GlyphClass: 2
Flags: MW
HStem: -1 21G<68 68> 463 34 621 38<361.5 380.5 360 386.5> 645 38<222 262>
VStem: 380 40<429 440 401 452 401 452>
LayerCount: 2
Fore
SplineSet
157 601 m 2xd8
 144 635 l 1
 144 635 177 683 251 683 c 2
 262 683 l 1xd8
 262 683 341 659 379 659 c 0
 382 659 385 659 388 660 c 2
 407 679 l 1
 432 651 l 1
 414 626 398 622 398 622 c 2xe8
 394 621 389 621 384 621 c 0
 339 621 251 645 251 645 c 1
 193 645 157 602 157 601 c 2xd8
28 403 m 1
 29 433 l 1
 29 433 156 496 156 497 c 2
 239 497 l 2
 238 496 192 391 143 249 c 1
 199 344 270 450 337 504 c 1
 416 482 l 1
 418 470 420 451 420 429 c 0
 420 373 390 189 306 -13 c 1
 263 -17 l 1
 343 177 380 375 380 429 c 2
 380 452 l 1
 368 455 361 456 347 460 c 1
 226 358 81 48 81 48 c 1
 76 32 72 15 68 -1 c 1
 30 9 l 1
 87 237 161 425 177 463 c 1
 122 438 48 409 28 403 c 1
EndSplineSet
EndChar

StartChar: igrave
Encoding: 236 236 116
Width: 275
GlyphClass: 2
Flags: MW
HStem: 0 21G<119 119> 699 20G<91 91>
VStem: 28 229<50 167> 91 144
LayerCount: 2
Fore
SplineSet
235 629 m 1xd0
 235 602 l 1
 91 674 l 1
 91 719 l 1
 158 675 235 629 235 629 c 1xd0
143 500 m 1
 181 500 l 1
 181 500 102 275 72 72 c 1
 117 48 l 1
 136 66 171 106 221 163 c 2
 235 179 l 1
 257 167 l 1
 186 80 119 0 119 0 c 1
 28 50 l 1
 60 267 143 500 143 500 c 1
EndSplineSet
EndChar

StartChar: iacute
Encoding: 237 237 117
Width: 274
GlyphClass: 2
Flags: MW
HStem: 0 21G<119 119> 699 20G<232 232>
VStem: 28 229<50 167> 88 144<602 719 629 719>
LayerCount: 2
Fore
SplineSet
88 602 m 1xd0
 88 629 l 1
 88 629 165 675 232 719 c 1
 232 674 l 1
 88 602 l 1xd0
143 500 m 1
 181 500 l 1
 181 500 102 275 72 72 c 1
 117 48 l 1
 136 66 171 106 221 163 c 2
 235 179 l 1
 257 167 l 1
 186 80 119 0 119 0 c 1
 28 50 l 1
 60 267 143 500 143 500 c 1
EndSplineSet
EndChar

StartChar: icircumflex
Encoding: 238 238 118
Width: 312
GlyphClass: 2
Flags: MW
HStem: 0 21G<119 119> 686 29
VStem: 28 267
LayerCount: 2
Fore
SplineSet
56 603 m 1
 44 635 l 1
 44 635 116 684 153 714 c 1
 153 715 l 1
 153 715 201 713 201 713 c 1
 201 712 l 1
 201 712 232 675 295 620 c 1
 280 585 l 1
 230 629 191 670 176 686 c 1
 128 645 56 603 56 603 c 1
143 500 m 1
 181 500 l 1
 181 500 102 275 72 72 c 1
 117 48 l 1
 136 66 171 106 221 163 c 2
 235 179 l 1
 257 167 l 1
 186 80 119 0 119 0 c 1
 28 50 l 1
 60 267 143 500 143 500 c 1
EndSplineSet
EndChar

StartChar: otilde
Encoding: 245 245 119
Width: 462
GlyphClass: 2
Flags: MW
HStem: -1 21G<182 182> 584 38<372.5 391.5 371 397.5> 608 38<233 273>
VStem: 31 40<100 141.5 97.5 259> 367 40<274 385.5>
LayerCount: 2
Fore
SplineSet
168 564 m 2xb8
 155 598 l 1
 155 598 188 646 262 646 c 2
 273 646 l 1xb8
 273 646 352 622 390 622 c 0
 393 622 396 622 399 623 c 2
 418 642 l 1
 443 614 l 1
 425 589 409 585 409 585 c 2
 405 584 400 584 395 584 c 0xd8
 350 584 262 608 262 608 c 1
 204 608 168 565 168 564 c 2xb8
228 498 m 2
 397 467 l 1
 404 429 407 400 407 376 c 0
 407 140 182 -1 182 -1 c 1
 34 35 l 1
 33 53 31 93 31 107 c 0
 31 411 227 498 228 498 c 2
363 430 m 1
 226 453 l 1
 88 346 71 176 71 107 c 0
 71 88 72 66 72 64 c 2
 175 41 l 1
 189 49 367 172 367 376 c 0
 367 395 367 407 363 430 c 1
EndSplineSet
EndChar

StartChar: atilde
Encoding: 227 227 120
Width: 419
GlyphClass: 2
Flags: MW
HStem: -1 21G<104 104> 462 32 585 38<337.5 356.5 336 362.5> 609 38<198 238>
VStem: 3 408
LayerCount: 2
Fore
SplineSet
133 565 m 2xd8
 120 599 l 1
 120 599 153 647 227 647 c 2
 238 647 l 1xd8
 238 647 317 623 355 623 c 0
 358 623 361 623 364 624 c 2
 383 643 l 1
 408 615 l 1
 390 590 374 586 374 586 c 2
 370 585 365 585 360 585 c 0xe8
 315 585 227 609 227 609 c 1
 169 609 133 566 133 565 c 2xd8
291 -12 m 1
 255 -6 l 1
 255 -6 256 20 308 234 c 1
 218 110 104 -1 104 -1 c 1
 3 55 l 1
 22 198 109 407 123 423 c 1
 237 489 386 494 411 494 c 1
 352 276 308 66 291 -12 c 1
47 75 m 1
 66 64 77 59 99 47 c 1
 132 77 266 216 335 341 c 1
 344 377 354 417 365 462 c 1
 299 462 199 425 145 389 c 0
 137 384 67 205 47 75 c 1
EndSplineSet
EndChar

StartChar: ae
Encoding: 230 230 121
Width: 606
GlyphClass: 3
Flags: MW
HStem: -1 21G<105 105 425 425> 462 32
VStem: 535 44<393.5 426 393.5 427>
LayerCount: 2
Fore
SplineSet
292 -12 m 1
 256 -6 l 1
 256 -6 257 20 309 234 c 1
 219 110 105 -1 105 -1 c 1
 4 55 l 1
 23 198 110 407 124 423 c 1
 238 489 387 494 412 494 c 1
 408 479 404 465 400 450 c 1
 414 468 429 484 446 498 c 1
 576 443 l 1
 576 443 579 434 579 418 c 0
 579 369 554 254 347 164 c 1
 341 112 341 75 341 75 c 1
 367 65 391 55 419 45 c 1
 510 121 568 193 568 193 c 1
 587 181 l 1
 587 181 530 85 425 -1 c 1
 304 44 l 1
 299 21 295 2 292 -12 c 1
48 75 m 1
 67 64 78 59 100 47 c 1
 133 77 267 216 336 341 c 1
 345 377 355 417 366 462 c 1
 300 462 200 425 146 389 c 0
 138 384 68 205 48 75 c 1
535 427 m 1
 457 459 l 1
 394 404 366 294 352 205 c 1
 450 244 535 315 535 427 c 1
EndSplineSet
EndChar

StartChar: Atilde
Encoding: 195 195 122
Width: 609
GlyphClass: 2
Flags: MW
HStem: -1 42<-19 62 -1 62 102 203> 0 39<340 354> 200 39 682 20G 771 38<592.5 611.5 591 617.5> 795 38<453 493>
VStem: 467 41<40 40>
LayerCount: 2
Fore
SplineSet
388 751 m 2xb6
 375 785 l 1
 375 785 408 833 482 833 c 2
 493 833 l 1xb6
 493 833 572 809 610 809 c 0
 613 809 616 809 619 810 c 2
 638 829 l 1
 663 801 l 1
 645 776 629 772 629 772 c 2
 625 771 620 771 615 771 c 0xba
 570 771 482 795 482 795 c 1
 424 795 388 752 388 751 c 2xb6
-19 -1 m 1
 -1 41 l 1
 62 41 l 1
 116 138 384 621 451 702 c 1
 498 694 546 687 599 679 c 1
 580 560 545 345 530 219 c 0
 522 149 512 80 508 40 c 1
 569 41 626 41 626 41 c 1xb6
 604 -2 l 1
 604 -2 341 0 340 0 c 2
 354 39 l 1x76
 354 39 408 39 467 40 c 1
 471 76 479 136 487 200 c 1
 424 200 227 199 191 199 c 1
 151 128 118 69 102 41 c 1
 221 41 l 1
 203 -1 l 1
 -19 -1 l 1
214 239 m 1
 280 239 442 240 492 240 c 1
 508 362 536 534 553 644 c 1
 525 648 497 653 467 658 c 1
 421 597 304 398 214 239 c 1
EndSplineSet
EndChar

StartChar: Ntilde
Encoding: 209 209 123
Width: 817
GlyphClass: 2
Flags: MW
HStem: 1 42<1 19 19 19 19 274> 660 40<617 706 596 847 745 745 745 809> 666 33<142 349> 769 38<580.5 599.5 579 605.5> 793 38<441 481>
VStem: 706 39<660 660>
LayerCount: 2
Fore
SplineSet
376 749 m 2xcc
 363 783 l 1
 363 783 396 831 470 831 c 2
 481 831 l 1xcc
 481 831 560 807 598 807 c 0
 601 807 604 807 607 808 c 2
 626 827 l 1
 651 799 l 1
 633 774 617 770 617 770 c 2xd4
 613 769 608 769 603 769 c 0
 558 769 470 793 470 793 c 1
 412 793 376 750 376 749 c 2xcc
1 1 m 1
 19 43 l 1
 19 43 68 43 125 42 c 1
 138 115 190 404 258 661 c 1
 219 663 142 666 142 666 c 1
 152 699 l 1
 349 699 l 1xac
 349 699 554 196 658 64 c 1
 671 252 692 470 706 660 c 1
 596 660 l 1
 617 700 l 1
 847 700 l 1
 809 660 l 1
 745 660 l 1
 692 2 l 1
 661 2 l 1
 507 161 320 660 320 660 c 1
 298 660 l 1
 236 425 181 126 166 42 c 1
 240 41 313 41 313 41 c 1
 274 1 l 1
 1 1 l 1
EndSplineSet
EndChar

StartChar: Otilde
Encoding: 213 213 124
Width: 543
GlyphClass: 2
Flags: MW
HStem: 1 40<89 214 89 228 60 214> 660 40 770 38<437.5 456.5 436 462.5> 794 38<298 338>
VStem: 24 40<209 365.5 209 382> 491 40<404.5 544.5>
LayerCount: 2
Fore
SplineSet
233 750 m 2xdc
 220 784 l 1
 220 784 253 832 327 832 c 2
 338 832 l 1xdc
 338 832 417 808 455 808 c 0
 458 808 461 808 464 809 c 2
 483 828 l 1
 508 800 l 1
 490 775 474 771 474 771 c 2
 470 770 465 770 460 770 c 0xec
 415 770 327 794 327 794 c 1
 269 794 233 751 233 750 c 2xdc
278 701 m 1
 500 701 l 1
 522 642 531 572 531 525 c 0
 531 244 228 1 228 1 c 1
 60 1 l 1
 34 83 24 175 24 236 c 0
 24 528 250 684 278 701 c 1
472 661 m 1
 287 660 l 1
 252 638 64 495 64 236 c 0
 64 182 70 106 89 41 c 1
 214 41 l 1
 248 70 491 284 491 525 c 0
 491 564 486 619 472 661 c 1
EndSplineSet
EndChar

StartChar: dieresis
Encoding: 168 168 125
Width: 833
GlyphClass: 2
Flags: MW
HStem: 603 62<267 299 252 322 389 436 389 389>
VStem: 386 51
LayerCount: 2
Fore
SplineSet
384 665 m 1
 439 665 l 1
 439 665 436 603 436 603 c 1
 389 603 l 1
 389 603 384 665 384 665 c 1
267 665 m 1
 322 665 l 1
 322 665 299 603 299 603 c 1
 252 603 l 1
 252 603 267 665 267 665 c 1
EndSplineSet
EndChar

StartChar: adieresis
Encoding: 228 228 126
Width: 419
GlyphClass: 2
Flags: MW
HStem: -1 21G<104 104> 462 32 602 62<189 221 174 244 311 358 311 311>
VStem: 308 51
LayerCount: 2
Fore
SplineSet
306 664 m 1
 361 664 l 1
 361 664 358 602 358 602 c 1
 311 602 l 1
 311 602 306 664 306 664 c 1
189 664 m 1
 244 664 l 1
 244 664 221 602 221 602 c 1
 174 602 l 1
 174 602 189 664 189 664 c 1
291 -12 m 1
 255 -6 l 1
 255 -6 256 20 308 234 c 1
 218 110 104 -1 104 -1 c 1
 3 55 l 1
 22 198 109 407 123 423 c 1
 237 489 386 494 411 494 c 1
 352 276 308 66 291 -12 c 1
47 75 m 1
 66 64 77 59 99 47 c 1
 132 77 266 216 335 341 c 1
 344 377 354 417 365 462 c 1
 299 462 199 425 145 389 c 0
 137 384 67 205 47 75 c 1
EndSplineSet
EndChar

StartChar: edieresis
Encoding: 235 235 127
Width: 382
GlyphClass: 2
Flags: MW
HStem: 1 21G<160 160> 603 62<191 223 176 246 313 360 313 313>
VStem: 36 40<77 77 77 114> 270 44<395.5 428 395.5 429> 310 51
LayerCount: 2
Fore
SplineSet
308 665 m 1xe8
 363 665 l 1
 363 665 360 603 360 603 c 1
 313 603 l 1
 313 603 308 665 308 665 c 1xe8
191 665 m 1
 246 665 l 1
 246 665 223 603 223 603 c 1
 176 603 l 1
 176 603 191 665 191 665 c 1
303 195 m 1
 322 183 l 1
 322 183 265 87 160 1 c 1
 37 47 l 1
 37 47 36 57 36 74 c 0
 36 154 48 391 181 500 c 1
 311 445 l 1
 311 445 314 436 314 420 c 0xf0
 314 371 289 256 82 166 c 1
 76 114 76 77 76 77 c 1
 102 67 126 57 154 47 c 1
 245 123 303 195 303 195 c 1
270 429 m 1
 192 461 l 1
 129 406 101 296 87 207 c 1
 185 246 270 317 270 429 c 1
EndSplineSet
EndChar

StartChar: idieresis
Encoding: 239 239 128
Width: 285
GlyphClass: 2
Flags: MW
HStem: 0 21G<119 119> 604 62<96 128 81 151 218 265 218 218>
VStem: 215 51
LayerCount: 2
Fore
SplineSet
213 666 m 1
 268 666 l 1
 268 666 265 604 265 604 c 1
 218 604 l 1
 218 604 213 666 213 666 c 1
96 666 m 1
 151 666 l 1
 151 666 128 604 128 604 c 1
 81 604 l 1
 81 604 96 666 96 666 c 1
143 500 m 1
 181 500 l 1
 181 500 102 275 72 72 c 1
 117 48 l 1
 136 66 171 106 221 163 c 2
 235 179 l 1
 257 167 l 1
 186 80 119 0 119 0 c 1
 28 50 l 1
 60 267 143 500 143 500 c 1
EndSplineSet
EndChar

StartChar: odieresis
Encoding: 246 246 129
Width: 430
GlyphClass: 2
Flags: MW
HStem: -1 21G<182 182> 604 62<239 271 224 294 361 408 361 361>
VStem: 31 40<100 141.5 97.5 259> 358 51 367 40<274 385.5>
LayerCount: 2
Fore
SplineSet
356 666 m 1xf0
 411 666 l 1
 411 666 408 604 408 604 c 1
 361 604 l 1
 361 604 356 666 356 666 c 1xf0
239 666 m 1
 294 666 l 1
 294 666 271 604 271 604 c 1
 224 604 l 1
 224 604 239 666 239 666 c 1
228 498 m 2
 397 467 l 1
 404 429 407 400 407 376 c 0xe8
 407 140 182 -1 182 -1 c 1
 34 35 l 1
 33 53 31 93 31 107 c 0
 31 411 227 498 228 498 c 2
363 430 m 1
 226 453 l 1
 88 346 71 176 71 107 c 0
 71 88 72 66 72 64 c 2
 175 41 l 1
 189 49 367 172 367 376 c 0
 367 395 367 407 363 430 c 1
EndSplineSet
EndChar

StartChar: udieresis
Encoding: 252 252 130
Width: 505
GlyphClass: 2
Flags: MW
HStem: 603 62<230 262 215 285 352 399 352 352>
VStem: 13 40 349 51
LayerCount: 2
Fore
SplineSet
347 665 m 1
 402 665 l 1
 402 665 399 603 399 603 c 1
 352 603 l 1
 352 603 347 665 347 665 c 1
230 665 m 1
 285 665 l 1
 285 665 262 603 262 603 c 1
 215 603 l 1
 215 603 230 665 230 665 c 1
160 498 m 1
 207 498 l 1
 130 370 61 208 53 58 c 1
 67 53 75 51 92 46 c 1
 126 83 313 322 379 496 c 1
 430 498 l 1
 430 498 313 38 313 38 c 1
 313 38 350 23 350 23 c 1
 376 58 475 191 475 191 c 1
 495 174 l 1
 495 174 364 -26 364 -26 c 1
 364 -26 261 18 261 18 c 1
 261 18 311 200 349 338 c 1
 249 169 111 -2 111 -2 c 1
 13 28 l 1
 15 247 136 459 157 494 c 0
 159 497 160 498 160 498 c 1
EndSplineSet
EndChar

StartChar: ydieresis
Encoding: 255 255 131
Width: 441
GlyphClass: 2
Flags: MW
HStem: 457 43<318 335> 603 62<146 178 131 201 268 315 268 268>
VStem: -15 30 124 37 265 51
LayerCount: 2
Fore
SplineSet
263 665 m 1
 318 665 l 1
 318 665 315 603 315 603 c 1
 268 603 l 1
 268 603 263 665 263 665 c 1
146 665 m 1
 201 665 l 1
 201 665 178 603 178 603 c 1
 131 603 l 1
 131 603 146 665 146 665 c 1
68 426 m 2
 104 457 l 1
 104 457 161 317 161 24 c 0
 161 9 160 -6 160 -22 c 1
 285 132 348 257 376 460 c 1
 359 458 342 457 328 457 c 0
 308 457 293 459 293 459 c 1
 292 500 l 1
 486 500 l 1
 469 486 448 476 426 470 c 1
 426 471 l 2
 425 458 392 108 50 -182 c 1
 -18 -136 l 1
 -18 -136 -12 -18 -12 -18 c 1
 13 6 l 1
 13 6 17 -110 17 -110 c 1
 58 -130 l 1
 82 -107 104 -86 124 -64 c 1
 123 288 73 426 68 426 c 2
EndSplineSet
EndChar

StartChar: yacute
Encoding: 253 253 132
Width: 441
GlyphClass: 2
Flags: MW
HStem: 457 43<318 335> 699 20G<306 306>
VStem: -15 30 124 37 162 144<602 719 629 719>
LayerCount: 2
Fore
SplineSet
162 602 m 1
 162 629 l 1
 162 629 239 675 306 719 c 1
 306 674 l 1
 162 602 l 1
68 426 m 2xf0
 104 457 l 1
 104 457 161 317 161 24 c 0
 161 9 160 -6 160 -22 c 1
 285 132 348 257 376 460 c 1
 359 458 342 457 328 457 c 0
 308 457 293 459 293 459 c 1
 292 500 l 1
 486 500 l 1
 469 486 448 476 426 470 c 1
 426 471 l 2
 425 458 392 108 50 -182 c 1
 -18 -136 l 1
 -18 -136 -12 -18 -12 -18 c 1
 13 6 l 1
 13 6 17 -110 17 -110 c 1
 58 -130 l 1
 82 -107 104 -86 124 -64 c 1
 123 288 73 426 68 426 c 2xf0
EndSplineSet
EndChar

StartChar: Udieresis
Encoding: 220 220 133
Width: 590
GlyphClass: 2
Flags: MW
HStem: -39 40<272 272> 653 50<137 252> 753 62<267 299 252 322 389 436 389 389>
VStem: 32 40<171.5 230 171.5 231.5> 386 51
LayerCount: 2
Fore
SplineSet
384 815 m 1
 439 815 l 1
 439 815 436 753 436 753 c 1
 389 753 l 1
 389 753 384 815 384 815 c 1
267 815 m 1
 322 815 l 1
 322 815 299 753 299 753 c 1
 252 753 l 1
 252 753 267 815 267 815 c 1
5 652 m 1
 25 702 l 1
 25 702 252 703 252 703 c 1
 232 653 l 1
 232 653 187 653 137 653 c 1
 126 589 96 406 75 262 c 0
 73 249 72 236 72 224 c 0
 72 119 132 1 272 1 c 0
 371 1 476 524 501 653 c 1
 458 653 415 653 415 653 c 1
 435 703 l 1
 435 703 610 702 610 702 c 1
 590 652 l 1
 590 652 569 652 543 652 c 1
 520 523 416 -29 272 -39 c 0
 104 -50 32 101 32 224 c 0
 32 239 33 255 35 268 c 0
 55 405 84 581 96 652 c 1
 48 652 5 652 5 652 c 1
EndSplineSet
EndChar

StartChar: Adieresis
Encoding: 196 196 134
Width: 609
GlyphClass: 2
Flags: MW
HStem: -1 42<-19 62 -1 62 102 203> 0 39<340 354> 200 39 682 20G 752 62<447 479 432 502 569 616 569 569>
VStem: 467 41<40 40> 566 51
LayerCount: 2
Fore
SplineSet
564 814 m 1xbe
 619 814 l 1
 619 814 616 752 616 752 c 1
 569 752 l 1
 569 752 564 814 564 814 c 1xbe
447 814 m 1
 502 814 l 1
 502 814 479 752 479 752 c 1
 432 752 l 1
 432 752 447 814 447 814 c 1
-19 -1 m 1
 -1 41 l 1
 62 41 l 1
 116 138 384 621 451 702 c 1
 498 694 546 687 599 679 c 1
 580 560 545 345 530 219 c 0
 522 149 512 80 508 40 c 1
 569 41 626 41 626 41 c 1xbe
 604 -2 l 1
 604 -2 341 0 340 0 c 2
 354 39 l 1x7e
 354 39 408 39 467 40 c 1
 471 76 479 136 487 200 c 1
 424 200 227 199 191 199 c 1
 151 128 118 69 102 41 c 1
 221 41 l 1
 203 -1 l 1
 -19 -1 l 1
214 239 m 1
 280 239 442 240 492 240 c 1
 508 362 536 534 553 644 c 1
 525 648 497 653 467 658 c 1
 421 597 304 398 214 239 c 1
EndSplineSet
EndChar

StartChar: Idieresis
Encoding: 207 207 135
Width: 356
GlyphClass: 2
Flags: MW
HStem: 0 39<-19 119 1 119 160 231> 651 51 752 62<151 183 136 206 273 320 273 273>
VStem: 270 51
LayerCount: 2
Fore
SplineSet
268 814 m 1
 323 814 l 1
 323 814 320 752 320 752 c 1
 273 752 l 1
 273 752 268 814 268 814 c 1
151 814 m 1
 206 814 l 1
 206 814 183 752 183 752 c 1
 136 752 l 1
 136 752 151 814 151 814 c 1
-19 0 m 1
 1 39 l 1
 119 39 l 1
 203 651 l 1
 138 651 76 651 76 651 c 1
 96 701 l 1
 96 701 366 702 366 702 c 1
 346 652 l 1
 346 652 298 652 243 652 c 1
 160 39 l 1
 251 39 l 1
 231 0 l 1
 -19 0 l 1
EndSplineSet
EndChar

StartChar: Odieresis
Encoding: 214 214 136
Width: 546
GlyphClass: 2
Flags: MW
HStem: 1 40<89 214 89 228 60 214> 660 40 750 62<300 332 285 355 422 469 422 422>
VStem: 24 40<209 365.5 209 382> 419 51 491 40<404.5 544.5>
LayerCount: 2
Fore
SplineSet
417 812 m 1
 472 812 l 1
 472 812 469 750 469 750 c 1
 422 750 l 1
 422 750 417 812 417 812 c 1
300 812 m 1
 355 812 l 1
 355 812 332 750 332 750 c 1
 285 750 l 1
 285 750 300 812 300 812 c 1
278 701 m 1
 500 701 l 1
 522 642 531 572 531 525 c 0
 531 244 228 1 228 1 c 1
 60 1 l 1
 34 83 24 175 24 236 c 0
 24 528 250 684 278 701 c 1
472 661 m 1
 287 660 l 1
 252 638 64 495 64 236 c 0
 64 182 70 106 89 41 c 1
 214 41 l 1
 248 70 491 284 491 525 c 0
 491 564 486 619 472 661 c 1
EndSplineSet
EndChar

StartChar: Ydieresis
Encoding: 376 376 137
Width: 522
GlyphClass: 2
Flags: MW
HStem: -211 43 656 44<94 199> 659 42<367 367 367 422 350 367> 751 62<212 244 197 267 334 381 334 334>
VStem: 127 45<117.5 280 117.5 292> 331 51 422 48<659 659>
LayerCount: 2
Fore
SplineSet
329 813 m 1xde
 384 813 l 1
 384 813 381 751 381 751 c 1
 334 751 l 1
 334 751 329 813 329 813 c 1xde
212 813 m 1
 267 813 l 1
 267 813 244 751 244 751 c 1
 197 751 l 1
 197 751 212 813 212 813 c 1
-65 656 m 1
 -44 698 l 1
 -44 698 199 700 199 700 c 1
 169 656 l 1
 94 656 l 1xde
 120 588 172 415 172 145 c 0
 172 90 169 46 164 -13 c 1
 379 252 416 575 422 659 c 1
 350 659 l 1
 367 701 l 1
 367 701 547 697 547 697 c 1
 528 659 l 1
 470 659 l 1xbe
 461 561 402 83 13 -207 c 0
 9 -210 3 -211 -2 -211 c 0
 -54 -211 -122 -122 -144 -77 c 0
 -152 -62 -156 -52 -156 -52 c 1
 -102 -22 l 1
 -97 -48 -25 -169 6 -168 c 1
 48 -136 85 -101 119 -65 c 1
 126 10 127 84 127 145 c 0
 127 439 61 611 41 656 c 1
 -65 656 l 1
EndSplineSet
EndChar

StartChar: AE
Encoding: 198 198 138
Width: 951
GlyphClass: 3
Flags: MW
HStem: -1 42<-9 72 9 72 112 213> 0 40<519 585.5 519 862> 200 39 338 40<570 812 564 831> 657 43
VStem: 907 55
LayerCount: 2
Fore
SplineSet
-9 -1 m 1xbc
 9 41 l 1
 72 41 l 1xbc
 126 138 394 621 461 702 c 1
 461 702 946 700 946 700 c 1
 962 700 l 1
 962 700 963 640 963 640 c 1
 963 640 874 502 874 502 c 1
 838 502 l 1
 838 502 907 641 907 641 c 2
 907 644 905 651 903 660 c 1
 838 659 712 658 616 657 c 1
 600 563 585 470 570 378 c 1
 831 378 l 1
 812 338 l 1
 564 338 l 1
 548 238 533 139 519 40 c 1x7c
 652 40 827 41 827 41 c 1xbc
 895 208 l 1
 925 211 l 1
 891 97 862 0 862 0 c 1
 349 0 l 1x7c
 371 39 l 1
 371 39 416 39 477 39 c 1
 481 76 489 136 497 200 c 1
 434 200 237 199 201 199 c 1
 161 128 128 69 112 41 c 1
 231 41 l 1
 213 -1 l 1
 -9 -1 l 1xbc
224 239 m 1
 290 239 452 240 502 240 c 1
 518 362 546 534 563 644 c 1
 535 648 507 653 477 658 c 1
 431 597 314 398 224 239 c 1
EndSplineSet
EndChar

StartChar: hyphen
Encoding: 45 45 139
Width: 300
GlyphClass: 2
Flags: MW
HStem: 248 40
VStem: 24 258<247 290>
LayerCount: 2
Fore
SplineSet
24 247 m 1
 34 287 l 1
 34 287 282 290 282 290 c 1
 272 250 l 1
 272 250 24 247 24 247 c 1
EndSplineSet
EndChar

StartChar: less
Encoding: 60 60 140
Width: 360
GlyphClass: 2
Flags: MW
HStem: 78 460<270 357>
VStem: -2 359<288 538>
LayerCount: 2
Fore
SplineSet
357 538 m 1
 357 493 l 1
 357 493 121 352 43 305 c 1
 115 250 276 126 276 126 c 1
 270 78 l 1
 270 78 -2 288 -2 288 c 1
 9 331 l 1
 9 331 357 538 357 538 c 1
EndSplineSet
EndChar

StartChar: slash
Encoding: 47 47 142
Width: 343
GlyphClass: 2
Flags: MW
HStem: -12 635<3 346 3 346>
VStem: 3 343
LayerCount: 2
Fore
SplineSet
303 623 m 1
 346 623 l 1
 346 623 39 -12 39 -12 c 1
 3 -12 l 1
 3 -12 303 623 303 623 c 1
EndSplineSet
EndChar

StartChar: ccedilla
Encoding: 231 231 143
Width: 316
GlyphClass: 2
Flags: MW
HStem: -151 41 -49 33<141 141>
VStem: 31 40<142 185 142 187.5> 141 41
LayerCount: 2
Fore
SplineSet
238 500 m 2
 272 473 l 2
 270 473 122 392 94 329 c 1
 76 278 71 214 71 156 c 0
 71 128 72 101 75 79 c 1
 107 69 130 60 164 49 c 1
 266 203 l 1
 286 188 l 1
 273 165 181 2 181 2 c 1
 39 48 l 1
 34 80 31 118 31 156 c 0
 31 219 35 287 56 343 c 0
 85 421 236 500 238 500 c 2
90 -29 m 1
 98 -24 119 -16 141 -16 c 0
 156 -16 172 -20 182 -33 c 1
 182 -33 175 -119 125 -151 c 1
 125 -151 86 -149 81 -111 c 1
 105 -108 l 1
 107 -114 111 -117 116 -119 c 1
 135 -101 140 -67 141 -49 c 1
 128 -46 106 -49 96 -54 c 1
 90 -29 l 1
EndSplineSet
EndChar

StartChar: quotedbl
Encoding: 34 34 144
Width: 289
GlyphClass: 2
Flags: MW
HStem: 427 230<55 276 198 276>
VStem: 74 48<656 656>
LayerCount: 2
Fore
SplineSet
228 657 m 1
 276 657 l 1
 276 657 257 553 232 430 c 1
 198 427 l 1
 216 548 228 657 228 657 c 1
74 656 m 1
 122 656 l 1
 122 656 112 560 88 429 c 1
 55 427 l 1
 66 561 74 656 74 656 c 1
EndSplineSet
EndChar

StartChar: quotedblleft
Encoding: 8220 8220 145
Width: 241
GlyphClass: 2
Flags: MW
HStem: 438 89
VStem: 7 34 140 35
LayerCount: 2
Fore
SplineSet
84 661 m 1
 98 640 l 1
 75 619 50 582 41 528 c 1
 102 528 l 1
 102 528 87 441 87 441 c 1
 10 436 l 1
 -7 564 57 644 84 661 c 1
217 661 m 1
 231 640 l 1
 209 620 185 584 175 532 c 1
 234 532 l 1
 234 532 219 441 219 441 c 1
 143 436 l 1
 126 564 190 644 217 661 c 1
EndSplineSet
EndChar

StartChar: quoteright
Encoding: 8217 8217 146
Width: 171
GlyphClass: 2
Flags: MW
HStem: 569 89
VStem: 96 34
LayerCount: 2
Fore
SplineSet
53 436 m 1
 39 457 l 1
 62 478 87 515 96 569 c 1
 35 569 l 1
 35 569 50 656 50 656 c 1
 114 660 l 1
 114 660 114 660 114 660 c 1
 127 661 l 1
 144 533 80 453 53 436 c 1
EndSplineSet
EndChar

StartChar: quotedblright
Encoding: 8221 8221 147
Width: 241
GlyphClass: 2
Flags: MW
HStem: 569 89
VStem: 66 35 200 34
LayerCount: 2
Fore
SplineSet
157 436 m 1
 143 457 l 1
 166 478 191 515 200 569 c 1
 139 569 l 1
 139 569 154 656 154 656 c 1
 218 660 l 1
 218 660 218 660 218 660 c 1
 231 661 l 1
 248 533 184 453 157 436 c 1
24 436 m 1
 10 457 l 1
 32 477 56 513 66 565 c 1
 7 565 l 1
 7 565 22 656 22 656 c 1
 86 660 l 1
 86 660 86 660 86 660 c 1
 98 661 l 1
 115 533 51 453 24 436 c 1
EndSplineSet
EndChar

StartChar: quoteleft
Encoding: 8216 8216 148
Width: 148
GlyphClass: 2
Flags: MW
HStem: 438 93
VStem: 25 35
LayerCount: 2
Fore
SplineSet
102 661 m 1
 116 640 l 1
 94 620 70 584 60 532 c 1
 119 532 l 1
 119 532 104 441 104 441 c 1
 28 436 l 1
 11 564 75 644 102 661 c 1
EndSplineSet
EndChar

StartChar: endash
Encoding: 8211 8211 149
Width: 427
GlyphClass: 2
Flags: MW
HStem: 251 40
VStem: 22 386<249 293>
LayerCount: 2
Fore
SplineSet
22 249 m 1
 32 289 l 1
 32 289 408 293 408 293 c 1
 398 253 l 1
 398 253 22 249 22 249 c 1
EndSplineSet
EndChar

StartChar: emdash
Encoding: 8212 8212 150
Width: 635
GlyphClass: 2
Flags: MW
HStem: 252 40<35 45>
VStem: 35 557<252 293>
LayerCount: 2
Fore
SplineSet
35 252 m 1
 45 292 l 1
 45 292 592 293 592 293 c 1
 582 253 l 1
 582 253 35 252 35 252 c 1
EndSplineSet
EndChar

StartChar: underscore
Encoding: 95 95 151
Width: 547
GlyphClass: 2
Flags: MW
HStem: -68 40<-6 4>
VStem: -6 557<-68 -27>
LayerCount: 2
Fore
SplineSet
-6 -68 m 1
 4 -28 l 1
 4 -28 551 -27 551 -27 c 1
 541 -67 l 1
 541 -67 -6 -68 -6 -68 c 1
EndSplineSet
EndChar

StartChar: OE
Encoding: 338 338 152
Width: 764
GlyphClass: 3
Flags: MW
HStem: -3 40<83 208 83 222 54 208> 333 40<483 630> 656 41<281 466 281 302>
VStem: 18 40<205 358.5> 485 40<495.5 539 495.5 540.5> 745 16
LayerCount: 2
Fore
SplineSet
272 697 m 2
 494 697 l 2
 618 696 745 696 745 696 c 1
 760 696 l 1
 760 696 762 635 762 635 c 1
 762 635 673 497 673 497 c 1
 637 497 l 1
 637 497 706 636 706 636 c 2
 706 639 704 646 702 655 c 1
 657 655 583 655 507 655 c 1
 520 607 525 557 525 521 c 0
 525 470 515 421 499 374 c 1
 554 373 630 373 630 373 c 1
 611 333 l 1
 483 333 l 1
 425 199 322 89 264 34 c 1
 398 35 626 36 626 36 c 1
 694 203 l 1
 724 206 l 1
 690 92 661 -2 661 -2 c 1
 661 -2 364 -3 222 -3 c 2
 54 -3 l 1
 28 79 18 171 18 232 c 0
 18 485 187 636 251 683 c 1
 257 697 l 1
 257 697 262 697 272 697 c 2
439 333 m 1
 441 374 l 1
 441 374 447 374 457 374 c 1
 474 421 485 470 485 521 c 0
 485 560 480 614 466 656 c 1
 393 656 323 656 281 656 c 1
 246 634 58 491 58 232 c 0
 58 178 64 102 83 37 c 1
 208 37 l 1
 233 58 368 177 440 333 c 1
 439 333 l 1
EndSplineSet
EndChar

StartChar: backslash
Encoding: 92 92 153
Width: 388
GlyphClass: 2
Flags: MW
HStem: -1 21G<315 358 315 315>
VStem: 15 343
LayerCount: 2
Fore
SplineSet
358 -1 m 1
 315 -1 l 1
 315 -1 15 634 15 634 c 1
 51 634 l 1
 51 634 358 -1 358 -1 c 1
EndSplineSet
EndChar

StartChar: Edieresis
Encoding: 203 203 154
Width: 609
GlyphClass: 2
Flags: MW
HStem: 0 40<171 238 171 514> 338 40<231 464 224 483> 657 43 753 62<302 334 287 357 424 471 424 424>
VStem: 421 51 598 16<700 700>
LayerCount: 2
Fore
SplineSet
419 815 m 1
 474 815 l 1
 474 815 471 753 471 753 c 1
 424 753 l 1
 424 753 419 815 419 815 c 1
302 815 m 1
 357 815 l 1
 357 815 334 753 334 753 c 1
 287 753 l 1
 287 753 302 815 302 815 c 1
92 655 m 1
 110 702 l 1
 110 702 598 700 598 700 c 1
 614 700 l 1
 614 700 615 640 615 640 c 1
 615 640 526 502 526 502 c 1
 490 502 l 1
 490 502 559 641 559 641 c 2
 559 644 557 651 555 660 c 1
 495 659 381 658 281 657 c 1
 231 378 l 1
 483 378 l 1
 464 338 l 1
 224 338 l 1
 171 40 l 1
 305 40 479 41 479 41 c 1
 547 208 l 1
 577 211 l 1
 543 97 514 0 514 0 c 1
 1 0 l 1
 23 39 l 1
 23 39 67 39 127 39 c 1
 232 656 l 1
 153 656 92 655 92 655 c 1
EndSplineSet
EndChar

StartChar: numbersign
Encoding: 35 35 156
Width: 530
GlyphClass: 2
Flags: MW
HStem: 141 40<330 367> 392 40<48 171 58 162 58 207 217 335 386 488>
VStem: 43 458<143 180>
LayerCount: 2
Fore
SplineSet
48 392 m 1
 58 432 l 1
 171 432 l 1
 191 522 206 590 206 590 c 1
 254 591 l 1
 254 591 238 523 217 432 c 1
 344 432 l 1
 363 521 378 588 378 588 c 1
 421 590 l 1
 421 590 406 522 386 432 c 1
 498 432 l 1
 488 392 l 1
 377 392 l 1
 362 325 345 249 330 181 c 1
 422 181 501 180 501 180 c 1
 491 140 l 1
 491 140 413 141 321 141 c 1
 301 48 285 -22 285 -22 c 1
 245 -14 l 1
 245 -14 260 53 279 141 c 1
 234 142 188 142 149 142 c 1
 127 50 111 -19 111 -19 c 1
 71 -11 l 1
 71 -11 86 55 105 143 c 1
 68 143 43 143 43 143 c 1
 53 183 l 1
 53 183 77 183 114 183 c 1
 130 250 146 325 162 392 c 1
 48 392 l 1
335 392 m 1
 207 392 l 1
 192 325 174 250 158 182 c 1
 197 182 243 182 288 181 c 1
 303 249 320 324 335 392 c 1
EndSplineSet
EndChar

StartChar: plus
Encoding: 43 43 157
Width: 379
GlyphClass: 2
Flags: MW
HStem: 176 34
VStem: 21 322<171 215>
LayerCount: 2
Fore
SplineSet
208 372 m 1
 248 372 l 1
 248 372 232 296 216 213 c 1
 283 214 343 215 343 215 c 1
 335 176 l 1
 335 176 275 175 208 174 c 1
 190 89 174 8 174 8 c 1
 134 8 l 1
 134 8 150 88 168 173 c 1
 93 172 21 171 21 171 c 1
 27 210 l 1
 27 210 100 211 176 212 c 1
 192 295 208 372 208 372 c 1
EndSplineSet
EndChar

StartChar: equal
Encoding: 61 61 158
Width: 419
GlyphClass: 2
Flags: MW
HStem: 41 40<29 39> 212 40<59 406 69 396>
VStem: 29 377<41 252>
LayerCount: 2
Fore
SplineSet
59 212 m 1
 69 252 l 1
 406 252 l 1
 396 212 l 1
 59 212 l 1
29 41 m 1
 39 81 l 1
 39 81 377 82 377 82 c 1
 367 42 l 1
 367 42 29 41 29 41 c 1
EndSplineSet
EndChar

StartChar: multiply
Encoding: 215 215 159
Width: 430
GlyphClass: 2
Flags: MW
HStem: 1 21G<61 61 301 351 301 301>
VStem: 3 419<-3 352>
LayerCount: 2
Fore
SplineSet
375 351 m 1
 422 352 l 1
 422 352 380 310 240 174 c 1
 292 95 345 14 351 1 c 1
 301 1 l 1
 295 17 255 81 213 148 c 1
 171 107 120 58 61 1 c 1
 3 -3 l 1
 80 71 143 132 193 180 c 1
 147 253 103 321 103 321 c 1
 137 328 l 1
 137 328 175 271 219 205 c 1
 333 313 375 351 375 351 c 1
EndSplineSet
EndChar

StartChar: Euro
Encoding: 8364 8364 162
Width: 522
GlyphClass: 2
Flags: MW
HStem: 257 39 387 40<25 106 35 85 35 130 153 382> 605 40<318 486 318 318>
VStem: 5 528<247 256>
LayerCount: 2
Fore
SplineSet
25 387 m 1
 35 427 l 1
 106 427 l 1
 149 502 216 585 304 645 c 1
 509 645 l 1
 486 605 l 1
 318 605 l 1
 247 556 191 489 153 427 c 1
 392 427 l 1
 382 387 l 1
 130 387 l 1
 111 351 99 319 94 296 c 1
 199 296 373 297 373 297 c 1
 363 257 l 1
 363 257 201 257 95 256 c 1
 138 81 270 29 285 18 c 1
 317 37 477 224 489 246 c 1
 533 247 l 1
 518 222 314 -31 285 -31 c 1
 247 -15 96 53 51 256 c 1
 23 256 5 256 5 256 c 1
 15 296 l 1
 15 296 29 296 51 296 c 1
 56 320 67 352 85 387 c 1
 25 387 l 1
EndSplineSet
EndChar

StartChar: braceleft
Encoding: 123 123 163
Width: 285
GlyphClass: 2
Flags: MW
HStem: -108 40<98.5 138> 681 40<226 250.5> 698 20G<290 290>
VStem: 3 287
LayerCount: 2
Fore
SplineSet
290 718 m 1xb0
 278 678 l 1
 278 678 261 681 240 681 c 0
 212 681 175 676 162 649 c 1
 162 649 132 415 130 400 c 1
 131 400 l 1
 131 400 131 400 129 399 c 2
 130 400 l 2
 124 396 74 370 46 355 c 1
 76 334 116 306 116 306 c 1
 116 306 70 -36 70 -36 c 1
 70 -36 62 -68 135 -68 c 0
 147 -68 164 -67 183 -64 c 1
 183 -104 l 1
 164 -107 146 -108 130 -108 c 0
 9 -108 31 -30 31 -30 c 1
 31 -30 75 281 75 281 c 1
 76 281 l 2
 73 283 3 333 3 333 c 1
 12 379 l 1
 12 379 78 413 93 420 c 1
 93 419 l 1
 97 456 124 663 124 663 c 1xd0
 147 712 205 721 246 721 c 0
 273 721 290 718 290 718 c 1xb0
EndSplineSet
EndChar

StartChar: asciicircum
Encoding: 94 94 164
Width: 664
GlyphClass: 2
Flags: MW
HStem: 688 29
VStem: 193 251<622 637>
LayerCount: 2
Fore
SplineSet
205 605 m 1
 193 637 l 1
 193 637 265 686 302 716 c 1
 302 717 l 1
 302 717 350 715 350 715 c 1
 350 714 l 1
 350 714 381 677 444 622 c 1
 429 587 l 1
 379 631 340 672 325 688 c 1
 277 647 205 605 205 605 c 1
EndSplineSet
EndChar

StartChar: twosuperior
Encoding: 178 178 165
Width: 268
GlyphClass: 2
Flags: MW
HStem: 423 30<85 205 85 205>
VStem: 21 217
LayerCount: 2
Fore
SplineSet
121 690 m 1
 101 712 l 1
 101 712 146 753 194 747 c 1
 194 747 221 734 238 672 c 1
 238 672 232 626 85 453 c 1
 205 453 l 1
 205 423 l 1
 21 423 l 1
 187 618 206 672 206 672 c 1
 193 714 182 718 182 718 c 1
 154 721 121 690 121 690 c 1
EndSplineSet
EndChar

StartChar: threesuperior
Encoding: 179 179 166
Width: 211
GlyphClass: 2
Flags: MW
HStem: 596 28 723 28<109.5 121.5>
VStem: 33 139
LayerCount: 2
Fore
SplineSet
47 432 m 1
 33 457 l 1
 33 457 118 501 135 592 c 1
 126 595 117 596 108 596 c 0
 87 596 73 591 73 591 c 1
 63 618 l 1
 63 618 63 618 64 618 c 2
 64 619 l 1
 64 619 141 669 144 720 c 1
 137 721 127 723 116 723 c 0
 103 723 88 721 76 715 c 1
 62 739 l 1
 81 749 99 751 116 751 c 0
 143 751 169 744 169 744 c 1
 168 742 l 1
 170 744 l 1
 179 691 147 649 119 624 c 1
 133 623 150 620 166 610 c 1
 151 483 47 432 47 432 c 1
EndSplineSet
EndChar

StartChar: onesuperior
Encoding: 185 185 167
Width: 221
GlyphClass: 2
Flags: MW
HStem: 440 29
VStem: 49 142<441 470 440 471 440 471>
LayerCount: 2
Fore
SplineSet
49 441 m 1
 49 471 l 1
 49 471 75 471 105 471 c 1
 117 525 152 693 152 693 c 2
 149 691 146 689 143 687 c 2
 130 678 l 2
 122 673 116 669 111 666 c 2
 101 659 l 1
 85 683 l 1
 178 749 l 1
 196 750 l 1
 196 750 152 542 137 470 c 1
 166 470 191 470 191 470 c 1
 191 440 l 1
 191 440 49 441 49 441 c 1
EndSplineSet
EndChar

StartChar: greater
Encoding: 62 62 168
Width: 371
GlyphClass: 2
Flags: MW
HStem: 66 484<15 34>
VStem: 12 346<111 287>
LayerCount: 2
Fore
SplineSet
32 505 m 1
 34 550 l 1
 34 550 353 331 353 331 c 1
 358 287 l 1
 358 287 15 66 15 66 c 1
 12 111 l 1
 12 111 228 250 316 307 c 1
 245 357 32 505 32 505 c 1
EndSplineSet
EndChar

StartChar: guillemotleft
Encoding: 171 171 169
Width: 604
GlyphClass: 2
Flags: MW
HStem: 46 460<279 366 366 490>
VStem: 7 35 218 38
LayerCount: 2
Fore
SplineSet
366 506 m 1
 386 472 l 1
 386 472 116 319 43 278 c 1
 121 218 303 78 303 78 c 1
 279 46 l 1
 279 46 7 256 7 256 c 1
 8 302 l 1
 7 304 l 1
 22 312 366 506 366 506 c 1
577 506 m 1
 597 472 l 1
 597 472 329 318 256 276 c 1
 336 215 514 78 514 78 c 1
 490 46 l 1
 490 46 218 256 218 256 c 1
 218 306 l 1
 218 306 577 506 577 506 c 1
EndSplineSet
EndChar

StartChar: guillemotright
Encoding: 187 187 170
Width: 604
GlyphClass: 2
Flags: MW
HStem: 36 460<27 114 114 238>
VStem: 348 38 561 35
LayerCount: 2
Fore
SplineSet
238 36 m 1
 218 70 l 1
 218 70 488 223 561 264 c 1
 483 324 301 464 301 464 c 1
 325 496 l 1
 325 496 597 286 597 286 c 1
 596 240 l 1
 597 238 l 1
 597 238 597 238 596 237 c 2
 597 238 l 1
 582 230 238 36 238 36 c 1
27 36 m 1
 7 70 l 1
 7 70 275 224 348 266 c 1
 268 327 90 464 90 464 c 1
 114 496 l 1
 114 496 386 286 386 286 c 1
 386 236 l 1
 386 236 27 36 27 36 c 1
EndSplineSet
EndChar

StartChar: braceright
Encoding: 125 125 171
Width: 287
GlyphClass: 2
Flags: MW
HStem: -108 40<54 96.5 54 116.5> 681 40<115.5 140>
VStem: 133 40<-36 -30> 246 38
LayerCount: 2
Fore
SplineSet
87 678 m 1
 84 718 l 1
 84 718 102 721 129 721 c 0
 170 721 226 712 238 663 c 1
 238 663 217 456 213 420 c 1
 226 414 285 379 285 379 c 1
 284 333 l 1
 284 333 202 283 200 281 c 2
 200 281 173 -30 173 -30 c 1
 173 -30 177 -108 56 -108 c 0
 40 -108 22 -107 4 -104 c 1
 13 -64 l 1
 31 -67 48 -68 60 -68 c 0
 133 -68 133 -36 133 -36 c 1
 133 -36 165 306 165 306 c 1
 165 306 211 334 246 355 c 1
 221 370 178 396 171 400 c 1
 172 400 l 1
 174 416 197 649 197 649 c 1
 190 676 154 681 126 681 c 0
 105 681 87 678 87 678 c 1
EndSplineSet
EndChar

StartChar: sterling
Encoding: 163 163 172
Width: 482
GlyphClass: 2
Flags: MW
HStem: 0 21G<33 33> 5 40<281 328> 275 40<79 99> 283 40<345 365> 612 43<337 394>
VStem: -2 478
LayerCount: 2
Fore
SplineSet
33 0 m 1x9c
 -2 14 l 1
 6 25 51 86 121 105 c 1
 130 142 145 209 161 277 c 1
 115 276 79 275 79 275 c 1
 99 315 l 1
 99 315 129 316 170 317 c 1xac
 193 417 214 510 214 510 c 1
 214 510 263 655 381 655 c 0
 419 655 455 628 476 563 c 1
 444 542 l 1
 417 600 410 612 378 612 c 0
 296 612 255 506 255 506 c 1
 255 506 234 416 211 318 c 1
 284 321 365 323 365 323 c 1
 345 283 l 1
 345 283 272 281 202 279 c 1
 186 209 170 141 160 104 c 1
 169 97 243 45 319 45 c 0
 346 45 375 52 399 73 c 1
 422 45 l 1
 388 15 347 5 309 5 c 0
 228 5 150 55 132 68 c 1x5c
 76 58 38 8 33 0 c 1x9c
EndSplineSet
EndChar

StartChar: minus
Encoding: 8722 8722 173
Width: 334
GlyphClass: 2
Flags: MW
HStem: 173 39
VStem: 5 322<171 215>
LayerCount: 2
Fore
SplineSet
5 171 m 1
 11 210 l 1
 11 210 327 215 327 215 c 1
 319 176 l 1
 319 176 5 171 5 171 c 1
EndSplineSet
EndChar

StartChar: divide
Encoding: 247 247 174
Width: 357
GlyphClass: 2
Flags: MW
HStem: 4 88<114 167 104 182> 193 39 351 86
VStem: 10 322<191 235>
LayerCount: 2
Fore
SplineSet
186 438 m 1
 254 438 l 1
 254 438 239 350 239 350 c 1
 174 353 l 1
 174 353 186 438 186 438 c 1
10 191 m 1
 16 230 l 1
 16 230 332 235 332 235 c 1
 324 196 l 1
 324 196 10 191 10 191 c 1
114 92 m 1
 182 92 l 1
 182 92 167 4 167 4 c 1
 104 4 l 1
 104 4 114 92 114 92 c 1
EndSplineSet
EndChar

StartChar: oslash
Encoding: 248 248 176
Width: 426
GlyphClass: 2
Flags: MW
HStem: -1 21G<182 182>
VStem: 31 40<100 141.5 97.5 259> 367 40<279.5 388 258 392>
LayerCount: 2
Fore
SplineSet
228 498 m 2
 307 484 l 1
 336 543 356 582 356 582 c 1
 392 564 l 1
 392 564 375 529 348 476 c 1
 397 467 l 1
 404 429 407 400 407 376 c 0
 407 140 182 -1 182 -1 c 1
 119 14 l 1
 92 -40 74 -75 74 -75 c 1
 38 -57 l 1
 38 -57 54 -25 78 24 c 1
 34 35 l 1
 33 53 31 93 31 107 c 0
 31 411 227 498 228 498 c 2
72 64 m 2
 96 59 l 1
 149 167 230 328 287 443 c 1
 226 453 l 1
 88 346 71 176 71 107 c 0
 71 88 72 66 72 64 c 2
363 430 m 1
 328 436 l 1
 272 323 191 161 136 50 c 1
 175 41 l 1
 193 51 367 174 367 385 c 0
 367 399 365 411 363 430 c 1
EndSplineSet
EndChar

StartChar: germandbls
Encoding: 223 223 177
Width: 539
GlyphClass: 3
Flags: MW
HStem: -192 34
VStem: 121 40<-42.5 84.5 -61.5 88> 425 40<103 127> 474 41<508.5 537.5>
LayerCount: 2
Fore
SplineSet
7 -76 m 1
 39 -76 l 1
 39 -76 67 -134 77 -157 c 1
 93 -155 111 -154 123 -153 c 1
 122 -119 121 -68 121 -17 c 0
 121 193 139 618 327 722 c 1
 327 722 473 693 513 552 c 0
 514 547 515 541 515 536 c 0xf0
 515 467 395 399 362 381 c 1
 393 327 465 187 465 129 c 0
 465 48 341 -24 341 -24 c 1
 309 4 l 1
 348 26 425 79 425 127 c 1
 424 131 l 2
 424 132 424 132 424 133 c 0xe0
 399 254 307 398 307 398 c 1
 335 412 l 1
 335 412 474 481 474 536 c 0
 474 539 474 541 473 544 c 0xf0
 444 651 328 682 328 682 c 1
 182 547 161 186 161 -17 c 0
 161 -106 165 -190 165 -190 c 1
 128 -193 l 2
 101 -195 51 -200 51 -200 c 1
 36 -160 l 2
 24 -124 7 -76 7 -76 c 1
EndSplineSet
EndChar

StartChar: Oslash
Encoding: 216 216 178
Width: 554
GlyphClass: 2
Flags: MW
HStem: 1 40<96 99 67 116 163 221 96 145> 660 41<294 382 294 294>
VStem: 31 40<209 365.5 209 382> 498 40<404.5 544.5>
LayerCount: 2
Fore
SplineSet
285 701 m 1
 400 701 l 1
 414 735 423 755 423 755 c 1
 478 755 l 1
 478 755 469 735 454 701 c 1
 507 701 l 1
 529 642 538 572 538 525 c 0
 538 244 235 1 235 1 c 1
 145 1 l 1
 128 -37 118 -60 118 -60 c 1
 73 -60 l 1
 73 -60 83 -37 99 1 c 1
 67 1 l 1
 41 83 31 175 31 236 c 0
 31 528 257 684 285 701 c 1
479 661 m 1
 436 661 l 1
 368 506 233 200 163 41 c 1
 221 41 l 1
 255 70 498 284 498 525 c 0
 498 564 493 619 479 661 c 1
96 41 m 1
 116 41 l 1
 185 200 316 506 382 660 c 1
 294 660 l 1
 259 638 71 495 71 236 c 0
 71 182 77 106 96 41 c 1
EndSplineSet
EndChar

StartChar: aring
Encoding: 229 229 179
Width: 419
GlyphClass: 2
Flags: MW
HStem: -1 21G<104 104> 462 32 585 30<272 292.5 272 300.5> 688 30<272 292.5>
VStem: 216 30<641 661.5 641 669.5> 319 30<641 661.5>
LayerCount: 2
Fore
SplineSet
216 651 m 0
 216 688 244 718 282 718 c 0
 319 718 349 688 349 651 c 0
 349 613 319 585 282 585 c 0
 244 585 216 613 216 651 c 0
246 651 m 0
 246 631 262 615 282 615 c 0
 303 615 319 631 319 651 c 0
 319 672 303 688 282 688 c 0
 262 688 246 672 246 651 c 0
291 -12 m 1
 255 -6 l 1
 255 -6 256 20 308 234 c 1
 218 110 104 -1 104 -1 c 1
 3 55 l 1
 22 198 109 407 123 423 c 1
 237 489 386 494 411 494 c 1
 352 276 308 66 291 -12 c 1
47 75 m 1
 66 64 77 59 99 47 c 1
 132 77 266 216 335 341 c 1
 344 377 354 417 365 462 c 1
 299 462 199 425 145 389 c 0
 137 384 67 205 47 75 c 1
EndSplineSet
EndChar

StartChar: Aring
Encoding: 197 197 180
Width: 609
GlyphClass: 2
Flags: MW
HStem: -1 42<-19 62 -1 62 102 203> 0 39<340 354> 200 39 682 20G 745 30<534 554.5 534 562.5> 848 30<534 554.5>
VStem: 467 41<40 40> 478 30<801 821.5 801 829.5> 581 30<801 821.5>
LayerCount: 2
Fore
SplineSet
478 811 m 0xbd80
 478 848 506 878 544 878 c 0
 581 878 611 848 611 811 c 0
 611 773 581 745 544 745 c 0
 506 745 478 773 478 811 c 0xbd80
508 811 m 0
 508 791 524 775 544 775 c 0
 565 775 581 791 581 811 c 0
 581 832 565 848 544 848 c 0
 524 848 508 832 508 811 c 0
-19 -1 m 1
 -1 41 l 1
 62 41 l 1
 116 138 384 621 451 702 c 1
 498 694 546 687 599 679 c 1
 580 560 545 345 530 219 c 0
 522 149 512 80 508 40 c 1
 569 41 626 41 626 41 c 1xbe80
 604 -2 l 1
 604 -2 341 0 340 0 c 2
 354 39 l 1
 354 39 408 39 467 40 c 1x7e80
 471 76 479 136 487 200 c 1
 424 200 227 199 191 199 c 1
 151 128 118 69 102 41 c 1
 221 41 l 1
 203 -1 l 1
 -19 -1 l 1
214 239 m 1
 280 239 442 240 492 240 c 1
 508 362 536 534 553 644 c 1
 525 648 497 653 467 658 c 1
 421 597 304 398 214 239 c 1
EndSplineSet
EndChar

StartChar: Ccedilla
Encoding: 199 199 181
Width: 547
GlyphClass: 2
Flags: MW
HStem: -151 41 -48 32<205.5 206.5> 1 21G<247 261.5> 657 40<320 488 320 320>
VStem: 10 43<306 332.5 306 335.5> 217 41 502 38<582 599.5>
LayerCount: 2
Fore
SplineSet
527 505 m 1
 485 482 l 1
 493 515 502 551 502 588 c 0
 502 611 498 635 488 657 c 1
 320 657 l 1
 174 557 53 359 53 306 c 1
 91 117 231 61 247 50 c 1
 279 69 439 256 451 278 c 1
 495 278 l 1
 480 254 276 1 247 1 c 1
 208 17 51 88 10 303 c 1
 10 368 140 585 306 697 c 1
 511 697 l 1
 529 671 540 638 540 595 c 0
 540 569 536 540 527 505 c 1
172 -54 m 1xfe
 166 -29 l 1
 173 -24 195 -16 216 -16 c 0
 232 -16 247 -21 258 -33 c 1
 258 -33 251 -119 201 -151 c 1
 201 -151 162 -149 157 -111 c 1
 181 -108 l 1
 183 -114 187 -117 192 -119 c 1
 211 -101 216 -67 217 -50 c 1
 213 -49 209 -48 204 -48 c 0
 192 -48 179 -51 172 -54 c 1xfe
EndSplineSet
EndChar

StartChar: cent
Encoding: 162 162 182
Width: 378
GlyphClass: 2
Flags: MW
HStem: 701 20G<223 223>
VStem: 45 51<186 241 186 244.5>
LayerCount: 2
Fore
SplineSet
310 644 m 2
 354 610 l 2
 352 610 296 580 239 539 c 1
 218 402 190 217 169 83 c 1
 184 78 199 73 216 68 c 1
 345 264 l 1
 371 246 l 1
 355 216 237 8 237 8 c 1
 161 32 l 1
 150 -44 142 -94 142 -94 c 1
 104 -98 l 1
 104 -98 112 -41 125 44 c 1
 55 66 l 1
 49 107 45 156 45 204 c 0
 45 285 50 371 77 444 c 0
 95 492 150 540 202 578 c 1
 215 663 223 721 223 721 c 1
 268 725 l 1
 268 725 261 679 250 610 c 1
 284 631 309 644 310 644 c 2
101 106 m 1
 112 103 122 99 132 96 c 1
 150 218 173 375 191 501 c 1
 162 476 137 450 126 426 c 0
 102 360 96 278 96 204 c 0
 96 168 97 134 101 106 c 1
EndSplineSet
EndChar

StartChar: yen
Encoding: 165 165 183
Width: 514
GlyphClass: 2
Flags: MW
HStem: 92 40<383 383> 202 40<65 209 55 211 309 422>
VStem: 211 42
LayerCount: 2
Fore
SplineSet
186 639 m 1
 232 660 l 1
 232 660 262 610 260 395 c 0
 259 343 257 302 253 248 c 1
 431 472 461 660 461 660 c 1
 509 657 l 1
 509 657 493 476 309 242 c 1
 432 242 l 1
 422 202 l 1
 276 202 l 1
 257 179 236 155 213 132 c 1
 303 132 393 132 393 132 c 1
 383 92 l 1
 383 92 272 92 173 91 c 1
 143 63 110 33 75 4 c 1
 3 4 l 1
 40 33 75 62 106 91 c 1
 54 91 15 91 15 91 c 1
 25 131 l 1
 25 131 80 131 148 131 c 1
 169 153 189 174 208 195 c 0
 208 197 208 200 209 202 c 2
 55 202 l 1
 65 242 l 1
 211 242 l 1
 214 297 214 349 215 395 c 0
 217 562 186 639 186 639 c 1
EndSplineSet
EndChar

StartChar: bar
Encoding: 124 124 185
Width: 219
GlyphClass: 2
Flags: MW
HStem: -46 787<86 126 86 126>
VStem: 86 40<-46 741 -46 741>
LayerCount: 2
Fore
SplineSet
86 741 m 1
 126 741 l 1
 126 -46 l 1
 86 -46 l 1
 86 741 l 1
EndSplineSet
EndChar

StartChar: degree
Encoding: 176 176 186
Width: 278
GlyphClass: 2
Flags: MW
HStem: 417 27<122 166 122 173> 602 27<122 166>
VStem: 38 27<501 545 501 552> 223 27<501 545>
LayerCount: 2
Fore
SplineSet
38 523 m 0
 38 581 86 629 144 629 c 0
 202 629 250 581 250 523 c 0
 250 465 202 417 144 417 c 0
 86 417 38 465 38 523 c 0
65 523 m 0
 65 479 100 444 144 444 c 0
 188 444 223 479 223 523 c 0
 223 567 188 602 144 602 c 0
 100 602 65 567 65 523 c 0
EndSplineSet
EndChar

StartChar: d
Encoding: 100 100 187
Width: 545
GlyphClass: 2
Flags: MW
HStem: 470 40<327.5 363> 680 20G<485 485>
VStem: 16 501
LayerCount: 2
Fore
SplineSet
485 700 m 1
 517 667 l 1
 517 667 310 42 310 42 c 1
 331 34 357 23 357 23 c 1
 381 55 452 151 477 180 c 1
 507 154 l 1
 477 119 371 -26 371 -26 c 1
 371 -26 284 0 257 11 c 1
 257 11 300 142 349 290 c 1
 239 131 114 -4 114 -4 c 1
 16 35 l 1
 30 128 75 318 143 465 c 1
 230 501 300 510 350 510 c 0
 383 510 407 506 420 504 c 1
 441 567 459 622 471 658 c 1
 421 650 299 631 299 631 c 1
 304 660 l 1
 304 660 485 700 485 700 c 1
60 61 m 1
 102 44 l 1
 142 88 301 274 398 437 c 0
 401 447 404 456 408 466 c 1
 396 468 376 470 350 470 c 0
 305 470 240 461 172 435 c 1
 114 308 76 150 60 61 c 1
EndSplineSet
EndChar
